<svg width="25" height="24" viewBox="0 0 25 24" fill="none" xmlns="http://www.w3.org/2000/svg">
    <path d="M7.1665 8H17.1665M7.1665 12H11.1665M12.1665 20L8.1665 16H5.1665C4.63607 16 4.12736 15.7893 3.75229 15.4142C3.37722 15.0391 3.1665 14.5304 3.1665 14V6C3.1665 5.46957 3.37722 4.96086 3.75229 4.58579C4.12736 4.21071 4.63607 4 5.1665 4H19.1665C19.6969 4 20.2056 4.21071 20.5807 4.58579C20.9558 4.96086 21.1665 5.46957 21.1665 6V14C21.1665 14.5304 20.9558 15.0391 20.5807 15.4142C20.2056 15.7893 19.6969 16 19.1665 16H16.1665L12.1665 20Z" stroke="white" stroke-width="2" stroke-linecap="round" stroke-linejoin="round"/>
</svg>