<svg width="25" height="24" viewBox="0 0 25 24" fill="none" xmlns="http://www.w3.org/2000/svg">
    <g clip-path="url(#clip0_655_5079)">
        <path d="M21.8421 24C21.0859 24 20.4181 23.7355 19.8387 23.2066C19.2594 22.6776 18.8994 22.0009 18.7587 21.1765H11.7368C10.5091 21.1765 9.46526 20.696 8.60547 19.7351C7.74568 18.7741 7.31579 17.6075 7.31579 16.2353C7.31579 14.8631 7.74568 13.6965 8.60547 12.7355C9.46526 11.7746 10.5091 11.2941 11.7368 11.2941H14.2632C15.1314 11.2941 15.8749 10.9482 16.4939 10.2565C17.112 9.56377 17.4211 8.73129 17.4211 7.75906C17.4211 6.78682 17.112 5.95671 16.4939 5.26871C15.8758 4.58071 15.1322 4.23624 14.2632 4.23529H7.24C7.09684 5.05882 6.73642 5.73553 6.15874 6.26541C5.58105 6.79529 4.91411 7.05976 4.15789 7.05882C3.28042 7.05882 2.53516 6.71624 1.92211 6.03106C1.30737 5.34494 1 4.512 1 3.53224C1 2.55247 1.30737 1.71906 1.92211 1.032C2.53684 0.344941 3.28211 0.000941176 4.15789 0C4.91411 0 5.58105 0.264941 6.15874 0.794824C6.73558 1.32377 7.09642 2 7.24126 2.82353H14.2632C15.4909 2.82353 16.5347 3.304 17.3945 4.26494C18.2543 5.22588 18.6842 6.39247 18.6842 7.76471C18.6842 9.13694 18.2543 10.3035 17.3945 11.2645C16.5347 12.2254 15.4909 12.7059 14.2632 12.7059H11.7368C10.8686 12.7059 10.1251 13.0522 9.50611 13.7449C8.888 14.4367 8.57895 15.2687 8.57895 16.2409C8.57895 17.2132 8.88842 18.0433 9.50737 18.7313C10.1255 19.4202 10.8686 19.7647 11.7368 19.7647H18.76C18.9032 18.9412 19.2636 18.2649 19.8413 17.736C20.4189 17.2071 21.0859 16.9421 21.8421 16.9412C22.7196 16.9412 23.4648 17.2842 24.0779 17.9704C24.6926 18.6555 25 19.488 25 20.4678C25 21.4475 24.6926 22.2809 24.0779 22.968C23.4632 23.6551 22.7179 23.9991 21.8421 24ZM4.15789 5.64706C4.67747 5.64706 5.12337 5.43953 5.49558 5.02447C5.86695 4.60847 6.05263 4.11012 6.05263 3.52941C6.05263 2.94871 5.86695 2.45035 5.49558 2.03435C5.12337 1.61929 4.67747 1.41176 4.15789 1.41176C3.63832 1.41176 3.19242 1.61929 2.82021 2.03435C2.44884 2.45035 2.26316 2.94871 2.26316 3.52941C2.26316 4.11012 2.44884 4.60847 2.82021 5.02447C3.19242 5.43953 3.63832 5.64706 4.15789 5.64706Z" fill="white"/>
    </g>
    <defs>
        <clipPath id="clip0_655_5079">
            <rect width="24" height="24" fill="white" transform="translate(0.833496)"/>
        </clipPath>
    </defs>
</svg>