<svg width="132" height="175" viewBox="0 0 132 175" fill="none" xmlns="http://www.w3.org/2000/svg">
<path fill-rule="evenodd" clip-rule="evenodd" d="M130.442 36.4488C105.825 22.3261 86.6304 63.7811 72.689 68.9998C44.5922 79.5173 -7.59539 88.6648 2.35728 109.112C16.023 137.188 63.5722 139.99 97.5754 137.188C141.803 133.545 178.842 64.2152 130.442 36.4488Z" fill="white" fill-opacity="0.48"/>
<path fill-rule="evenodd" clip-rule="evenodd" d="M49.7833 52.6699C48.8267 48.4196 51.433 41.3645 56.0898 38.5278C60.7466 35.691 66.7031 35.4967 71.8893 37.1813C71.724 32.1726 76.8049 27.8747 81.8006 28.2885C86.7963 28.7023 90.9413 33.1862 91.6125 38.1524C92.1355 42.022 90.1485 46.6313 86.3061 47.3322C87.6643 52.1837 88.4195 57.2882 87.674 62.2707C86.9285 67.2532 84.5567 72.1203 80.554 75.1811C79.4489 76.6671 80.2836 78.9088 81.7384 80.0549C83.1933 81.2011 85.0762 81.6039 86.817 82.2364C94.1114 84.8867 99.247 92.0812 100.444 99.7473C101.641 107.413 99.2502 115.364 94.929 121.809C91.9693 126.223 87.943 130.144 82.9056 131.842C75.835 134.225 68.0827 131.904 61.2169 128.984C58.5997 127.87 55.9344 126.605 54.0869 124.443C52.1063 122.125 48.3631 123.377 45.6637 124.794C47.4586 125.539 49.2535 126.283 51.0484 127.028C51.4341 127.188 51.8525 127.378 52.0314 127.755C52.4079 128.549 51.4804 129.313 50.6954 129.708C49.8518 130.133 49.0081 130.558 48.1645 130.983C42.9864 133.589 37.5935 136.253 31.7981 136.414C25.4619 136.59 19.4767 133.759 13.7743 130.992C13.1405 130.684 12.4686 130.342 12.124 129.727C11.7794 129.113 11.972 128.155 12.6531 127.975C19.0503 126.284 25.1068 123.315 30.3621 119.296C29.9601 116.793 30.0549 114.212 30.6393 111.746C30.7238 111.389 30.8454 110.998 31.1633 110.816C31.945 110.367 32.624 111.549 32.7621 112.44C33.1108 114.688 33.4594 116.936 33.808 119.184C37.9943 118.721 42.0573 117.184 45.5011 114.76C42.8151 112.597 40.1291 110.435 37.4431 108.272C35.8933 107.025 34.3973 106.278 33.5603 103.835C33.0023 102.206 33.4527 100.533 34.9114 98.8153C33.283 90.7024 32.5705 84.5867 32.7739 80.4683C32.8282 79.369 32.9512 78.1822 33.6914 77.3674C34.9979 75.9292 37.5632 76.5494 38.7557 78.0834C39.9483 79.6175 40.1479 81.6761 40.3021 83.6128C44.8427 83.0582 49.3833 82.5036 53.924 81.949C55.5852 81.7461 57.3055 81.5479 58.9045 82.0422C60.9105 82.6623 62.5216 84.4187 62.9662 86.4702C64.8822 85.9525 66.9692 85.3149 68.0512 83.6515C69.1333 81.9881 68.2168 79.095 66.2339 79.1808C60.0312 79.4491 53.965 74.8477 52.5532 68.8036C52.1942 67.2663 52.0547 65.5581 50.9752 64.406C49.2647 62.5804 47.9613 60.2268 47.9697 57.7254C47.9781 55.224 49.0264 54.9255 49.7833 52.6699ZM12.758 129.651C12.8976 129.859 13.1414 129.968 13.3722 130.067C15.7409 131.081 18.1095 132.094 20.4781 133.107C21.5559 133.569 22.6371 134.031 23.7642 134.353C26.9075 135.252 30.2946 135.033 33.4199 135.993C33.799 136.109 34.2059 135.989 34.5833 135.868C37.3091 134.99 40.0028 134.013 42.6574 132.939C45.4345 131.815 48.1866 130.575 50.6523 128.874C50.8766 128.719 51.1094 128.547 51.2118 128.295C51.3141 128.042 51.2198 127.691 50.9576 127.616C49.2936 127.144 47.6536 126.587 46.0463 125.947C45.5296 125.742 44.9479 125.449 44.8382 124.904C43.4222 124.961 42.184 125.853 41.1395 126.811C40.095 127.768 39.1139 128.85 37.8269 129.443C36.5399 130.036 34.8126 129.985 33.921 128.884C33.8258 128.766 33.7302 128.631 33.5838 128.592C33.4374 128.554 33.2493 128.7 33.3175 128.835C33.4943 129.185 33.1146 129.627 32.7233 129.603C32.332 129.579 32.0261 129.222 31.9298 128.842C31.8335 128.462 31.3107 129.141 30.553 129.254C29.7953 129.367 28.9914 128.881 28.7397 128.158C28.5323 127.561 27.7191 127.551 27.0977 127.439C25.6847 127.186 24.6117 125.706 24.8105 124.284C20.7497 125.638 16.7626 127.213 12.8726 128.999C12.6444 129.103 12.6183 129.442 12.758 129.651Z" fill="white"/>
<path d="M69.7669 71.1739C70.9592 71.1739 71.9258 70.2075 71.9258 69.0155C71.9258 67.8235 70.9592 66.8572 69.7669 66.8572C68.5745 66.8572 67.6079 67.8235 67.6079 69.0155C67.6079 70.2075 68.5745 71.1739 69.7669 71.1739Z" fill="#FFAB01"/>
<path d="M54.7812 69.3971C55.4124 69.3971 55.9241 68.8853 55.9241 68.2541C55.9241 67.6228 55.4124 67.1111 54.7812 67.1111C54.1499 67.1111 53.6382 67.6228 53.6382 68.2541C53.6382 68.8853 54.1499 69.3971 54.7812 69.3971Z" fill="#FFAB01"/>
<path fill-rule="evenodd" clip-rule="evenodd" d="M80.0765 77.678C80.2744 78.704 80.862 79.6978 81.6445 80.3142C83.0993 81.4603 86.3694 82.6404 88.1103 83.2729C88.2687 83.3305 87.3755 83.8348 86.2224 84.9499C83.1008 87.969 76.2752 93.3751 69.607 90.6583C68.8276 90.3408 68.1759 89.9752 67.6451 89.5877C67.1559 89.2307 71.6454 89.745 75.8424 88.9496C80.0623 88.1498 83.9884 86.0366 82.9375 84.3614C81.9497 82.7867 79.1716 80.1196 78.955 78.5508C78.6663 76.4607 79.9064 76.7963 80.0765 77.678Z" fill="#E5E5EA"/>
<path fill-rule="evenodd" clip-rule="evenodd" d="M12.6724 129.057C12.6724 128.22 15.3132 127.542 19.8276 125.845C22.9326 124.677 28.9847 121.299 31.9624 121.141C33.9438 121.037 41.862 123.935 47.0297 126.016C49.6281 127.062 51.6324 127.718 51.6324 128.054C51.6324 128.728 46.1153 131.984 40.4766 134.124C37.7243 135.168 35.1421 136.104 32.7739 136.04C25.5541 135.848 12.6724 131.177 12.6724 129.057Z" fill="white"/>
<path fill-rule="evenodd" clip-rule="evenodd" d="M114.669 59.5171C104.315 63.9377 95.6665 71.4914 87.4259 79.1727L86.9218 79.6431C86.4411 80.0923 85.7114 80.562 85.1927 80.1573L86.7939 78.7C95.1723 71.09 103.835 63.5442 114.201 59.061C122.171 55.6141 122.087 56.3498 114.669 59.5171ZM70.0733 133.151L74.9299 138.439C75.1679 138.699 75.4158 138.977 75.4824 139.322C75.549 139.668 75.3487 140.089 74.9987 140.126L64.9992 141.171C63.3383 141.345 61.6445 140.194 61.1662 138.594C60.688 136.995 61.4535 135.121 62.9 134.287C64.3466 133.453 66.3308 133.716 67.5315 134.876C67.829 135.163 68.3513 134.919 68.5625 134.564C68.7737 134.208 68.8193 133.772 69.0375 133.421C69.2557 133.069 69.7935 132.846 70.0733 133.151ZM62.0095 136.203C61.3894 137.38 61.7815 138.973 62.8429 139.775C63.363 140.168 64.0015 140.378 64.645 140.482C65.5539 140.629 66.6084 140.518 67.1927 139.807C67.4061 139.547 67.5368 139.229 67.626 138.905C67.923 137.826 67.772 136.632 67.216 135.662C67.0646 135.397 66.8318 135.122 66.5276 135.135C66.383 135.141 66.2488 135.214 66.1048 135.229C65.8653 135.254 65.6435 135.117 65.4252 135.015C64.2193 134.454 62.6296 135.027 62.0095 136.203ZM69.6418 134.212C69.4509 135.007 69.0558 135.754 68.5047 136.359C68.3495 136.529 68.3875 136.793 68.419 137.021C68.5722 138.133 68.3189 139.297 67.7173 140.245C68.7032 140.011 69.7113 139.872 70.7235 139.829C72.111 139.77 73.5586 139.881 74.8303 139.323C74.1509 139.027 73.5742 138.502 73.2175 137.852C73.0076 137.471 72.7174 137.14 72.4295 136.813L70.2182 134.301C70.0584 134.12 69.6982 133.976 69.6418 134.212ZM44.529 134.164C44.846 135.154 46.0387 135.493 47.072 135.671L53.9674 136.822C55.5618 137.089 57.1983 137.354 58.7839 137.04C59.083 136.981 59.2413 137.456 59.0439 137.688C58.8465 137.921 58.5031 137.948 58.1981 137.949C56.8167 137.954 55.4433 137.77 54.0761 137.565L52.6199 137.343C50.0425 136.947 47.4663 136.525 44.9435 135.869C44.5117 135.757 44.0644 135.628 43.7338 135.328C43.4032 135.029 43.2313 134.506 43.4639 134.125C43.6965 133.744 44.3929 133.739 44.529 134.164ZM81.8006 28.2885C86.7963 28.7023 90.9413 33.1862 91.6125 38.1524C92.1355 42.022 90.1485 46.6313 86.3061 47.3322C87.6643 52.1837 88.4195 57.2882 87.674 62.2707C86.9285 67.2532 84.5567 72.1203 80.554 75.1811C79.4489 76.6671 80.2836 78.9088 81.7384 80.0549C83.1933 81.2011 85.0762 81.6039 86.817 82.2365C94.1114 84.8868 99.247 92.0812 100.444 99.7473C101.641 107.413 99.2502 115.364 94.929 121.809C91.9693 126.223 87.943 130.144 82.9056 131.842C75.9057 134.201 68.2376 131.95 61.4231 129.071L61.2169 128.984C58.6542 127.893 56.0454 126.657 54.2034 124.577L54.0869 124.443C52.1064 122.125 48.3631 123.377 45.6637 124.794L51.0484 127.028C51.4341 127.188 51.8525 127.378 52.0314 127.755C52.4079 128.549 51.4804 129.313 50.6954 129.709L47.5337 131.3C42.5485 133.801 37.3585 136.259 31.7981 136.414C25.5356 136.588 19.616 133.824 13.9734 131.088L13.6153 130.914C13.0308 130.625 12.4399 130.29 12.124 129.727C11.7794 129.113 11.972 128.155 12.6531 127.975C19.0503 126.284 25.1068 123.315 30.3621 119.296C29.9601 116.793 30.0549 114.212 30.6393 111.746L30.669 111.626C30.7532 111.305 30.8807 110.978 31.1633 110.816C31.945 110.367 32.624 111.549 32.7621 112.44L33.808 119.184C37.9943 118.721 42.0573 117.184 45.5011 114.76L37.2265 108.098C35.745 106.899 34.2451 105.604 33.5603 103.835C32.8422 101.98 33.4199 99.4648 35.2757 98.7469C35.4222 91.7191 35.0516 84.6807 34.1681 77.7072C32.9463 84.6721 33.9282 91.8128 34.9114 98.8153C33.2255 92.9812 32.4955 86.8723 32.7583 80.8053L32.7739 80.4683C32.8282 79.369 32.9512 78.1823 33.6914 77.3675C34.9979 75.9292 37.5632 76.5494 38.7558 78.0835C39.9483 79.6175 40.1479 81.6761 40.3021 83.6128L54.2361 81.9112C55.7998 81.7241 57.4055 81.5788 58.9045 82.0422C60.9105 82.6623 62.5216 84.4187 62.9662 86.4702L63.293 86.381C65.1153 85.877 67.0305 85.2208 68.0513 83.6515C69.1218 82.0058 68.2361 79.1564 66.2968 79.1791L66.2339 79.1808C60.0312 79.4491 53.965 74.8477 52.5532 68.8036C52.1942 67.2664 52.0547 65.5581 50.9752 64.406C49.2647 62.5804 47.9613 60.2268 47.9697 57.7254C47.9781 55.224 49.5735 52.6443 52.0031 52.0464C54.4327 51.4484 57.3081 53.4749 57.0985 55.9675C58.2772 55.8475 59.4829 56.0009 60.5941 56.4122C59.9604 54.7043 61.6029 52.8191 63.408 52.5712C65.2132 52.3233 66.9722 53.2247 68.4734 54.2572C69.9745 55.2896 71.4089 56.5051 73.1542 57.0284L73.2347 56.8423C73.5954 56.0004 73.9276 55.1012 73.7458 54.2112C73.5506 53.2552 72.4732 52.4285 71.601 52.8662C70.9887 51.1124 70.0144 49.4857 68.757 48.1181L65.2625 49.7651C64.8122 49.091 64.5364 48.3015 64.469 47.4937C62.1617 48.812 59.6573 49.7848 57.065 50.3699L57.3303 48.3913L49.5837 52.4138C48.4398 47.0835 51.433 41.3645 56.0898 38.5278C60.7466 35.691 66.7031 35.4967 71.8894 37.1813C71.724 32.1726 76.8049 27.8747 81.8006 28.2885ZM119.911 115.166C115.448 116.243 111.116 117.859 107.039 119.969L106.744 120.123C104.485 121.313 102.267 122.739 100.851 124.854C101.807 124.689 102.828 124.938 103.601 125.525C104.088 125.897 104.496 126.453 104.467 127.065C104.452 127.383 104.32 127.685 104.142 127.949C103.448 128.978 101.977 129.395 100.845 128.885C99.7127 128.375 99.0515 126.997 99.3624 125.795C94.5597 127.434 90.4309 130.961 88.0573 135.445L87.9779 135.597C87.861 135.822 87.7181 136.075 87.4701 136.131C87.1291 136.208 86.8255 135.828 86.8411 135.478C86.8567 135.129 87.0805 134.828 87.2968 134.554C90.0955 131.001 93.3663 127.619 97.552 125.904L97.8673 125.778C98.8547 125.386 99.8882 125.002 100.526 124.167C102.072 122.141 104.299 120.751 106.56 119.574C108.583 118.521 110.676 117.601 112.821 116.824C114.973 116.043 117.174 115.407 119.379 114.79L126.849 112.711C124.828 114.13 122.312 114.587 119.911 115.166ZM24.8105 124.284C20.7497 125.638 16.7626 127.213 12.8726 128.999C12.6444 129.103 12.6183 129.442 12.758 129.651C12.8976 129.859 13.1414 129.969 13.3722 130.067L20.4781 133.108C21.5559 133.569 22.6371 134.031 23.7642 134.353C26.9075 135.252 30.2946 135.033 33.4199 135.993C33.799 136.109 34.2059 135.989 34.5833 135.868C37.3091 134.99 40.0028 134.013 42.6574 132.939C45.4345 131.815 48.1866 130.575 50.6523 128.874C50.8766 128.719 51.1094 128.547 51.2118 128.295C51.3141 128.042 51.2198 127.691 50.9576 127.616C49.2936 127.144 47.6536 126.587 46.0463 125.947L45.9348 125.902C45.4489 125.699 44.94 125.41 44.8382 124.904C43.4222 124.961 42.184 125.853 41.1395 126.811C40.095 127.769 39.1139 128.85 37.8269 129.443C36.5399 130.036 34.8126 129.985 33.921 128.884L33.8635 128.812C33.7855 128.716 33.7009 128.623 33.5838 128.592C33.4374 128.554 33.2493 128.7 33.3175 128.835C33.4943 129.185 33.1146 129.627 32.7233 129.603C32.332 129.579 32.0261 129.222 31.9298 128.842C31.8679 128.598 31.8733 128.346 31.9029 128.094L31.9104 128.032C31.7364 128.648 31.191 129.159 30.553 129.254C29.7953 129.367 28.9914 128.881 28.7397 128.158C28.5323 127.562 27.7191 127.551 27.0977 127.439C25.6847 127.186 24.6117 125.706 24.8105 124.284ZM34.4069 100.561C33.5699 102.049 34.3473 103.933 35.3783 105.294C38.6114 109.564 44.0266 111.612 47.7214 115.489C48.6498 116.463 49.459 117.542 50.2579 118.626L52.7689 122.035C53.2304 122.662 53.6936 123.29 54.2321 123.852C55.6363 125.317 57.4852 126.262 59.314 127.142C63.0246 128.927 66.8419 130.567 70.8705 131.419C74.8992 132.271 79.1798 132.3 83.056 130.911C86.684 129.61 89.8101 127.116 92.2389 124.124C94.6099 121.204 96.3502 117.818 97.7452 114.324L97.8466 114.068C98.0473 113.558 98.2445 113.025 98.2029 112.479C98.1588 111.901 97.851 111.376 97.4917 110.922C96.1218 109.189 93.8323 108.209 91.6398 108.48C89.4816 108.746 87.5054 110.243 86.7148 112.267L86.6781 112.363C84.96 117.019 80.6817 120.521 75.8756 121.764C71.0694 123.007 65.8419 122.116 61.4551 119.793C57.0682 117.47 53.4886 113.793 50.8196 109.609L50.6739 109.378C50.1918 108.604 49.7534 107.79 49.5836 106.897C49.3969 105.915 49.5868 104.811 50.296 104.107C50.7645 103.642 51.4313 103.369 51.772 102.803C52.1128 102.238 51.7126 101.239 51.084 101.441L50.6646 101.574C47.7751 102.472 44.4228 103.17 42.0982 101.299L41.8748 101.121C40.7902 100.259 39.6312 99.4366 38.2837 99.1402C36.8433 98.8234 35.1296 99.2754 34.4069 100.561ZM45.9249 115.65C42.4202 117.863 38.4649 119.361 34.3726 120.024C33.8323 120.111 33.6871 120.811 33.6786 121.359C33.6516 123.097 33.7358 124.838 33.9306 126.566C34.3739 126.358 34.5552 125.836 34.8574 125.451C35.1596 125.065 35.8493 124.854 36.0829 125.285C36.2461 125.585 36.0283 125.962 35.7502 126.161C35.4721 126.361 35.1301 126.469 34.8821 126.705C34.2652 127.291 34.5877 128.445 35.3393 128.845C36.091 129.245 37.0419 129.036 37.7626 128.583C38.4832 128.129 39.04 127.465 39.6511 126.872C40.958 125.604 42.5566 124.639 44.2872 124.072C46.4841 123.353 48.9305 123.246 50.8633 121.978C50.9935 121.892 51.1282 121.792 51.1773 121.644C51.2444 121.443 51.131 121.233 51.0105 121.054L48.698 117.697C48.3296 117.162 47.9057 116.588 47.2745 116.434C46.986 116.365 46.6783 116.392 46.3951 116.302C46.1119 116.213 45.8451 115.936 45.9249 115.65ZM29.7796 120.526C28.878 120.947 28.3444 121.936 28.2256 122.924C28.1069 123.912 28.3401 124.906 28.617 125.862C28.7871 126.448 28.9756 127.033 29.2568 127.575C29.4361 127.921 29.6735 128.265 30.0328 128.416C30.3921 128.566 30.8907 128.431 31.0075 128.059C31.0556 127.906 31.0341 127.741 31.0062 127.583C30.9016 126.989 30.7138 126.41 30.4504 125.868L30.3397 125.648C30.1812 125.331 30.032 124.957 30.2357 124.681C30.4303 124.416 30.9086 124.307 30.8629 123.982L30.4163 120.809C30.4033 120.716 30.388 120.618 30.3277 120.547C30.2009 120.396 29.9582 120.443 29.7796 120.526ZM101.263 125.42C100.965 125.419 100.652 125.46 100.413 125.637C100.273 125.741 100.168 125.886 100.093 126.044C99.7791 126.71 100.069 127.566 100.664 128C101.259 128.433 102.084 128.474 102.774 128.214C103.301 128.015 103.808 127.565 103.79 127.003C103.776 126.559 103.439 126.188 103.067 125.945C102.536 125.597 101.898 125.423 101.263 125.42ZM31.4713 111.534C31.3951 111.59 31.3574 111.684 31.3252 111.773C30.8564 113.074 30.799 114.483 30.8119 115.866C30.8444 119.332 31.2898 122.793 32.1357 126.155L32.1778 126.318C32.3507 126.974 32.5871 127.648 33.1226 128.054C33.2222 122.727 32.8765 117.392 32.0903 112.123C32.0392 111.781 31.7489 111.327 31.4713 111.534ZM27.2491 122.983C27.1372 123.014 27.0653 123.121 27.0095 123.223C26.5523 124.057 26.5214 125.111 26.929 125.97C27.1117 126.355 27.4251 126.73 27.849 126.777C28.0218 126.562 27.9428 126.252 27.846 125.988L27.7624 125.765C27.4513 124.922 27.1959 124.01 27.4701 123.162C27.5059 123.052 27.3611 122.951 27.2491 122.983ZM25.7239 124.138C25.4032 124.851 25.5461 125.748 26.0723 126.325C26.2895 126.103 26.194 125.74 26.1198 125.438C26.0037 124.966 25.9775 124.472 26.043 123.991C25.9621 123.872 25.7828 124.007 25.7239 124.138ZM32.482 98.7393C32.968 99.1578 33.277 100.061 32.6998 100.341C32.33 100.52 31.911 100.258 31.5618 100.041C29.7472 98.9158 27.4272 98.8329 25.37 99.4054C23.3128 99.978 21.4737 101.144 19.7476 102.401C18.0286 103.653 16.3712 105.026 15.0787 106.714C13.7862 108.403 12.8719 110.437 12.7969 112.561C12.707 115.107 13.8072 117.541 15.0794 119.748C15.8902 121.155 16.8046 122.542 18.0633 123.563L18.322 123.768C18.6791 124.055 19.0457 124.41 18.9546 124.841C17.7209 124.785 16.8254 123.682 16.146 122.651C15.1799 121.185 14.2992 119.662 13.51 118.094C12.8537 116.79 12.2538 115.431 12.0544 113.985C11.6795 111.265 12.784 108.5 14.5008 106.357C16.2176 104.214 18.5024 102.606 20.8133 101.122C22.5686 99.9957 24.3751 98.9149 26.3455 98.2304C28.3776 97.5244 30.852 97.3358 32.482 98.7393ZM84.6314 86.7603C81.7093 89.487 77.8252 91.1621 73.836 91.4158C72.0729 91.5279 70.2524 91.3595 68.6571 90.6007C67.0618 89.8419 65.7181 88.4271 65.3473 86.7002L65.2149 86.7411C64.0602 87.1063 62.7382 87.7672 62.7498 88.9569C62.7991 94.0022 62.6817 99.0491 62.3977 104.087C62.3432 105.053 61.975 106.322 61.007 106.294C57.5677 106.193 54.1058 106.987 51.0545 108.576C54.489 113.961 59.3734 118.669 65.4491 120.641C71.5249 122.613 78.8526 121.381 83.1102 116.62C84.475 115.094 85.4795 113.29 86.4467 111.482L86.6694 111.065C86.8751 110.68 87.0845 110.221 86.9016 109.825C86.7848 109.571 87.0365 109.308 87.2676 109.152C90.6651 106.853 95.7237 107.476 98.4607 110.532C98.2438 110.108 98.441 109.523 98.8704 109.317C99.2118 109.865 99.284 110.573 99.0606 111.179C99.2085 111.388 99.4798 111.051 99.5033 110.796C99.8682 106.825 99.8396 102.817 99.4179 98.8515C99.2659 97.4215 99.0593 95.9826 98.5475 94.6386C98.0986 93.4601 97.4242 92.3798 96.6851 91.3578C94.9847 89.0066 92.9176 86.921 90.5813 85.1996L90.4116 85.0762C90.0412 84.8111 89.6513 84.5668 89.2136 84.4476C87.4812 83.9761 85.944 85.5355 84.6314 86.7603ZM61.026 84.4757C59.0943 85.1256 57.0026 85.0006 54.9694 85.1411C52.1041 85.339 49.2775 86.0839 46.687 87.3238C45.5712 87.8579 44.4919 88.4855 43.3119 88.8569C40.806 89.6458 37.9333 89.1586 35.8278 87.5877C35.3739 91.052 35.5078 94.5924 36.222 98.0125C36.2679 98.2322 36.4126 98.5132 36.6272 98.4473C38.0512 98.0101 39.5828 98.6286 40.849 99.4133C42.1151 100.198 43.305 101.176 44.7432 101.565C46.4302 102.02 48.2181 101.599 49.888 101.07L50.013 101.03C50.869 100.755 51.9761 100.526 52.525 101.238C52.9879 101.838 52.6956 102.735 52.2055 103.313C51.7153 103.892 51.0506 104.322 50.6507 104.966C50.1597 105.757 50.1572 106.825 50.6444 107.618C53.8336 106.339 57.247 105.622 60.6813 105.509C61.3699 105.486 61.6115 104.595 61.6538 103.907C62.0247 97.8824 62.1386 91.8416 61.995 85.8069C61.9797 85.1637 61.636 84.2705 61.026 84.4757ZM112.66 100.768L112.796 100.836C113.642 101.266 114.542 101.839 114.668 102.764C114.709 103.069 114.657 103.379 114.585 103.678C114.484 104.092 114.332 104.517 114.01 104.796C113.668 105.092 113.189 105.176 112.737 105.158C111.848 105.124 110.959 104.71 110.444 103.985C109.929 103.259 109.846 102.222 110.326 101.474C110.807 100.725 111.863 100.373 112.66 100.768ZM111.341 101.804C110.814 102.024 110.624 102.736 110.844 103.263C111.064 103.789 111.587 104.136 112.129 104.314C112.684 104.495 113.399 104.48 113.73 103.999C113.84 103.839 113.892 103.646 113.922 103.454C113.989 103.036 113.948 102.574 113.679 102.247C113.346 101.843 112.776 101.762 112.245 101.732L112.113 101.725C111.852 101.713 111.582 101.703 111.341 101.804ZM44.821 90.9138C44.8876 91.1667 44.8364 91.4336 44.7908 91.6911C44.4701 93.5048 44.4469 95.3707 44.7218 97.1919L44.7726 97.5143C44.8061 97.7423 44.8198 97.9829 44.6888 98.1664C44.5376 98.3781 44.1139 98.3568 44.0927 98.0975C43.9123 95.8909 43.7967 93.679 43.7461 91.4656C43.7365 91.0428 43.8468 90.4806 44.2686 90.4481C44.5294 90.428 44.7543 90.6609 44.821 90.9138ZM29.9781 86.4919C30.29 86.5857 30.5897 86.7992 30.6801 87.1121C30.7705 87.4249 30.5647 87.8203 30.2396 87.8408C29.9367 87.8599 29.7054 87.584 29.427 87.463C28.9272 87.2456 28.3665 87.5491 27.9071 87.8422L27.6732 87.9932C27.2321 88.2836 26.8047 88.6094 26.5625 89.0725C26.3147 89.5462 26.294 90.103 26.3016 90.6375C26.307 91.0091 26.3244 91.3861 26.4393 91.7395C26.6886 92.5063 27.4001 93.0807 28.1892 93.2469C28.9783 93.4132 29.8223 93.1978 30.4899 92.7454L30.6206 92.6566C30.7384 92.5789 30.862 92.5113 31.0007 92.5046C31.1913 92.4954 31.4 92.6751 31.3352 92.8546C31.3158 92.9084 31.2759 92.952 31.236 92.993C30.1448 94.1135 28.2607 94.3534 26.9234 93.542C26.6849 93.3972 26.4625 93.2225 26.2822 93.0096C25.7403 92.3695 25.6392 91.4726 25.6243 90.6342C25.6162 90.1805 25.6275 89.7199 25.7564 89.2849C26.0352 88.3448 26.8228 87.6466 27.6414 87.1066C28.3365 86.6482 29.1807 86.2521 29.9781 86.4919ZM23.6652 84.5632L26.3854 87.7927C26.2358 87.9546 25.9735 87.9652 25.7713 87.8773C25.5916 87.7992 25.4483 87.6595 25.3132 87.516L23.7172 85.7999C23.4995 87.5417 22.9724 89.2443 22.1677 90.8044C22.0894 90.9563 22.3113 91.0845 22.4813 91.1019C22.8964 91.1446 23.3162 91.0971 23.7256 91.0161L23.9366 90.9735C24.2672 90.9078 24.6062 90.8563 24.9143 90.9784C25.2886 91.1266 25.5195 91.6711 25.2194 91.9392C25.0344 92.1046 24.7542 92.084 24.508 92.0535L21.8587 91.726L21.7773 91.7143C21.5157 91.6715 21.2283 91.5691 21.1899 91.3171C21.1668 91.1652 21.2512 91.02 21.3302 90.8882C22.2732 89.3149 22.9014 87.554 23.1681 85.7394L23.2083 85.4516C23.2601 85.0984 23.3519 84.7152 23.6652 84.5632ZM116.345 89.6372C116.673 89.8694 116.983 90.3253 116.729 90.6367C116.569 90.8316 116.263 90.8364 116.034 90.7316C115.805 90.6267 115.627 90.4388 115.43 90.2828C114.62 89.643 113.405 89.5756 112.529 90.1219C112.405 90.1997 112.281 90.2963 112.23 90.4342C112.18 90.5721 112.236 90.7573 112.377 90.7989C113.494 90.3257 114.826 90.3918 115.891 90.9735C116.044 91.0575 116.206 91.1694 116.244 91.3406C116.282 91.5118 116.098 91.7171 115.945 91.6315C115.25 91.2426 114.421 91.0995 113.636 91.233C113.27 91.2953 112.912 91.4156 112.541 91.4274C112.17 91.4391 111.764 91.3153 111.567 91.0008C111.385 90.7105 111.428 90.3188 111.606 90.0257C111.783 89.7327 112.073 89.5251 112.377 89.367C113.614 88.7235 115.207 88.8319 116.345 89.6372ZM79.2832 73.9364C76.6307 76.1655 73.5138 77.8394 70.1907 78.8209L69.9688 78.8853C69.5374 79.0084 68.9945 79.2815 69.0852 79.7208L69.1411 79.9934C69.3069 80.8129 69.4474 81.6475 69.3292 82.4722C69.2017 83.3615 68.7113 84.2517 67.8997 84.6254L67.825 84.658C66.3799 85.2527 66.1768 87.4107 67.1245 88.653C68.0722 89.8954 69.7156 90.3764 71.268 90.5559C75.8242 91.0826 80.5789 89.5555 83.9755 86.4742C85.2075 85.3567 86.3099 84.0189 87.8352 83.355L84.0208 81.9592C82.9918 81.5826 81.9494 81.1992 81.0537 80.5681C80.1581 79.9371 79.4112 79.0183 79.2281 77.9383C79.0038 76.6154 79.6382 75.2304 79.2832 73.9364ZM35.2837 77.5132C35.188 77.5558 35.0903 77.6123 35.0442 77.7063C34.9981 77.8005 35.0137 77.9118 35.03 78.0154L35.9039 83.5226C36.1614 85.1456 36.5232 86.9441 37.8621 87.8973C39.3288 88.9414 41.3429 88.5324 43.0508 87.9362L43.142 87.9041C46.3211 86.7753 49.3808 85.2039 52.7128 84.6752C55.1051 84.2957 57.6138 84.4581 59.8759 83.5923C59.0485 82.3438 57.2559 82.3504 55.7563 82.5142L43.5056 83.9061C42.5565 84.0139 41.5596 84.1398 40.7889 84.7038C40.4516 84.9506 40.1323 85.2897 39.7147 85.3069C39.3084 85.3237 38.9552 84.7321 39.2737 84.5146L39.3018 84.4973C39.651 84.3052 39.6275 83.804 39.556 83.412L39.1855 81.381C38.9982 80.3735 38.7694 79.3483 38.1665 78.5258C37.5153 77.6375 36.2904 77.066 35.2837 77.5132ZM119.859 85.7446C120.154 86.0885 120.167 86.6162 119.97 87.0245C119.773 87.4327 119.4 87.7329 118.997 87.9398C118.51 88.1894 117.974 88.3197 117.437 88.4308L117.169 88.4853C117.063 88.5064 116.953 88.5272 116.851 88.4934C116.766 88.4652 116.698 88.4018 116.642 88.332C116.365 87.9847 116.375 87.4723 116.562 87.0696C116.749 86.6668 117.085 86.3538 117.43 86.0735C117.782 85.7871 118.165 85.5172 118.607 85.4125C119.049 85.3077 119.563 85.4002 119.859 85.7446ZM118.41 86.349L118.269 86.444C118.057 86.5888 117.854 86.7469 117.712 86.9581C117.538 87.2162 117.478 87.5762 117.649 87.8358L118.785 87.2037C118.97 87.1008 119.162 86.9919 119.282 86.8175C119.402 86.6431 119.426 86.3829 119.278 86.2318C119.055 86.0051 118.675 86.173 118.41 86.349ZM100.284 73.9164C100.363 73.9485 100.417 74.0203 100.463 74.0937L102.128 76.812C102.426 77.2978 103.102 77.3519 103.671 77.3119C104.76 77.2352 105.839 77.013 106.87 76.6529C107.043 76.5925 107.207 76.8125 107.169 76.9918C107.132 77.171 106.978 77.2987 106.833 77.4113L104.333 79.3597C104.026 79.3379 104.113 78.8355 104.362 78.6546L104.436 78.6032C104.676 78.4413 104.967 78.2815 104.952 78.0035L103.507 78.4547C103.231 78.5409 102.924 78.6256 102.662 78.5045C102.487 78.424 102.365 78.266 102.255 78.107L100.419 75.4283L100.387 77.774C100.385 77.9664 100.377 78.175 100.254 78.3237C100.168 78.4292 100.038 78.4859 99.9086 78.5336L97.3756 79.4422C98.052 80.1185 99.3181 79.4069 100.128 79.9165C100.682 80.2656 100.777 81.0435 100.657 81.6877C100.538 82.3319 100.263 82.9586 100.299 83.6129C100.761 83.2776 101.101 82.7769 101.241 82.2236C101.297 82.0005 101.325 81.7631 101.45 81.5694C101.792 81.0353 102.609 81.1439 103.176 81.4296C103.742 81.7153 104.33 82.1266 104.95 81.9907L104.05 80.5535C103.968 80.4223 103.883 80.2803 103.891 80.1259C103.898 79.9714 104.045 79.8152 104.193 79.86C104.258 79.8797 104.306 79.9311 104.349 79.9847L106.355 82.5843C105.65 83.0486 104.721 82.7561 103.907 82.532L103.787 82.5004C102.993 82.3041 102.024 82.2846 101.586 82.9569C101.277 83.4308 100.915 83.8697 100.508 84.2626C100.337 84.4281 100.141 84.5931 99.9043 84.6201C99.6675 84.6472 99.3954 84.4677 99.4164 84.2304L99.6496 81.6018C99.6647 81.4316 99.6762 81.2463 99.5813 81.1042C99.4814 80.9545 99.2931 80.8963 99.1196 80.8484L96.9281 80.2434C96.4517 80.1118 96.4482 79.3704 96.8056 79.029C97.1629 78.6877 97.6893 78.6161 98.1656 78.484C98.6419 78.352 99.157 78.0716 99.243 77.585L99.7991 74.4357C99.8467 74.1665 100.031 73.8138 100.284 73.9164ZM41.3234 29.5152L40.9187 29.844C38.2221 32.0408 35.5649 34.344 33.5872 37.1998C31.5106 40.1983 30.2357 43.9167 30.854 47.511C31.7549 52.7488 36.4413 56.9202 36.6417 62.2311C36.6683 62.9366 37.3869 63.3756 37.9881 63.746C40.3607 65.2078 42.1189 67.5278 43.2791 70.0611C44.403 72.5153 45.003 75.1745 45.4393 77.8396L45.4811 78.0976C45.546 78.504 45.5935 78.9666 45.3313 79.2838C45.069 79.601 44.3947 79.4899 44.4209 79.0792C44.7286 74.2504 42.9732 69.3241 39.6808 65.7774C38.8256 64.856 37.8321 64.002 36.6277 63.6412C36.5509 65.5012 35.9245 67.3965 34.5985 68.7034C33.2724 70.0103 31.1805 70.6074 29.4638 69.8862C27.7472 69.165 26.697 66.9875 27.4696 65.2937C28.1168 63.8748 29.7241 63.1581 31.2544 62.856C32.756 62.5596 34.3126 62.5442 35.8197 62.8107C36.0225 62.8465 36.1108 62.5631 36.1068 62.3573C35.9978 56.8369 30.8935 52.515 30.2235 47.0343C29.8573 44.0391 30.8796 41.024 32.3631 38.3961C34.3113 34.9451 37.0828 31.9623 40.3819 29.7658L40.4683 29.7098C40.7325 29.5435 41.0406 29.4017 41.3234 29.5152ZM58.1297 57.6316C57.3911 58.1066 57.4101 59.1606 57.349 60.0364C57.2652 61.2378 56.852 62.4403 56.0462 63.3355C55.2404 64.2307 54.0161 64.7806 52.8208 64.6304C52.5116 64.5915 52.4176 65.0388 52.4582 65.3477C53.153 70.6423 56.3658 75.8405 61.3593 77.7363C64.4121 78.8954 67.8605 78.7414 70.9729 77.7535C74.0112 76.7891 76.7612 75.0739 79.2744 73.1106L79.4579 72.9665C79.8223 72.6787 80.1887 72.3789 80.442 71.9898C80.6989 71.5951 80.8253 71.1283 80.8869 70.6615C81.2166 68.1606 79.5449 65.5437 77.1366 64.791C76.8531 64.7024 76.9187 64.2427 77.1674 64.0805C77.4161 63.9183 77.7363 63.9293 78.0203 63.8425C78.7897 63.6075 79.1437 62.7315 79.3193 61.9466C79.5605 60.8682 79.6283 59.6384 78.9598 58.7584C78.0563 57.569 76.2997 57.5706 74.8102 57.6845L72.3933 57.8695C71.5592 57.9333 70.4854 58.2272 70.4463 59.0627C70.362 60.862 69.5692 62.6544 68.1684 63.7874C66.7676 64.9203 64.7503 65.3121 63.0874 64.6185C61.4509 63.936 60.2948 62.155 60.4838 60.3966L60.494 60.3115C60.5925 59.5677 60.5383 58.76 60.1024 58.1492C59.6665 57.5384 58.7609 57.2257 58.1297 57.6316ZM78.0918 29.5141C77.0141 29.8203 75.9789 30.3143 75.1281 31.0432C73.9391 32.0617 73.1486 33.5335 72.9563 35.087C72.8881 35.6375 72.9976 36.3474 73.5324 36.4953C74.8386 36.8565 76.0074 37.6942 76.769 38.815C75.5341 38.0803 74.1803 37.5458 72.7765 37.2385L78.71 40.595C79.054 40.7896 79.4111 40.9962 79.6274 41.3268C79.8436 41.6575 79.8663 42.1509 79.5691 42.4114L79.1543 42.0887C78.1148 41.2843 77.0521 40.5046 75.8886 39.8959C75.0039 39.4331 74.0701 39.074 73.1313 38.7319L72.6189 38.5464C70.8809 37.9196 69.1271 37.2888 67.2966 37.0383C65.5975 36.8059 63.8531 36.9091 62.1933 37.3403L61.866 37.4241C59.6238 37.9914 57.2859 38.4552 55.4322 39.8257C54.3295 40.6409 53.466 41.7323 52.646 42.8314L52.4526 43.0937C50.8236 45.3297 49.335 48.0864 50.2881 50.6519C54.664 50.113 58.0731 46.7282 62.0372 44.7988C62.3402 44.6513 62.8399 44.6062 62.8859 44.9399L58.4501 47.5604C58.5733 48.2371 58.4569 48.9549 58.1263 49.5581C61.3671 48.6425 64.397 46.9894 66.9215 44.7611L67.082 44.6181C67.4824 44.2577 68.254 43.9595 68.4246 44.4704L68.2075 44.5916C67.4115 45.0393 66.6196 45.5289 66.0709 46.2538C65.4722 47.0446 65.2339 48.1942 65.7645 49.0321L71.3643 45.7359C71.5917 45.602 71.8398 45.4633 72.1024 45.4909C72.3649 45.5184 72.611 45.8011 72.4976 46.0394L72.3072 46.0791C71.7027 46.2074 71.0898 46.3683 70.6192 46.7619C70.099 47.197 69.8296 48.0125 70.2162 48.5696C70.9095 49.5689 71.4721 50.6587 71.8852 51.8026C71.8942 51.3024 72.5762 51.0466 73.0258 51.2662C73.4754 51.4858 73.7133 51.9815 73.8762 52.4545C74.3423 53.8077 74.4654 55.2774 74.231 56.6892C75.6392 57.1862 77.2907 56.5991 78.6452 57.2278C79.9024 57.8115 80.5175 59.3253 80.4301 60.7082C80.3427 62.0912 79.6891 63.37 78.991 64.5672C80.942 66.0782 81.9842 68.6811 81.615 71.1206C81.9552 71.0651 82.2426 70.7716 82.2909 70.4304L83.0646 70.9185C81.8544 71.6024 80.9934 72.8714 80.8054 74.2484C86.1225 69.2742 87.8878 61.3906 87.1207 54.1511L87.0907 53.8811C86.7867 51.2669 86.0632 48.5418 84.0966 46.8102C85.151 46.2024 86.5033 46.4415 87.6314 45.9851C88.6974 45.554 89.43 44.5545 89.9248 43.5168C91.579 40.0477 91.0094 35.6337 88.5285 32.6979C86.0476 29.7621 81.7896 28.4631 78.0918 29.5141ZM60.7097 73.0218C60.8774 73.0495 61.0677 73.1062 61.1334 73.2629C61.2383 73.5132 60.9444 73.742 60.69 73.8368C60.3207 73.9743 59.933 74.0624 59.5404 74.0979C59.2111 74.1277 58.7956 74.0641 58.6938 73.7496C58.6268 73.5428 58.7431 73.3105 58.9192 73.1829C59.0953 73.0554 59.3179 73.0123 59.5341 72.9889C59.925 72.9466 60.3217 72.9577 60.7097 73.0218ZM54.6948 69.4343C55.852 70.7938 57.6622 71.5137 59.4478 71.5278C61.2333 71.5419 62.9851 70.8965 64.4675 69.9013L64.5922 69.8176C64.7805 69.6925 64.9758 69.575 65.1966 69.5366C65.4665 69.4897 65.7874 69.6029 65.8791 69.861C64.3287 71.1775 62.3851 72.0469 60.3592 72.2306C58.3333 72.4144 56.2349 71.8948 54.5818 70.7096C54.2836 70.4958 53.9753 70.2144 53.963 69.8477C53.9507 69.4811 54.457 69.1549 54.6948 69.4343ZM30.4405 63.6758C29.6358 63.9324 28.826 64.3084 28.3184 64.9833C27.5643 65.9857 27.6962 67.5067 28.5106 68.4607C29.3251 69.4147 30.7023 69.7956 31.931 69.5421C33.1597 69.2885 34.2265 68.4597 34.9169 67.4125C35.6074 66.3653 35.9455 65.1151 36.0479 63.865C36.065 63.6555 36.027 63.3781 35.8202 63.3396C34.0358 63.0077 32.1696 63.1243 30.4405 63.6758ZM58.9527 58.7912C58.9863 59.0795 58.8747 59.3624 58.7721 59.634C58.1927 61.1684 57.8399 62.7882 57.7289 64.4246C57.7109 64.6897 57.7007 64.9645 57.7979 65.2118C57.8897 65.4453 58.1028 65.6484 58.35 65.6624L58.3939 65.6628C58.6189 65.6549 58.7256 65.9901 58.5841 66.1651C58.4426 66.3401 58.1771 66.3598 57.9614 66.2956C57.5184 66.1637 57.2009 65.7515 57.0723 65.3077C56.9438 64.8639 56.9767 64.39 57.041 63.9325C57.2593 62.3812 57.8258 60.8772 57.8535 59.3109C57.8614 58.8689 57.9517 58.2731 58.3925 58.2379C58.682 58.2148 58.9191 58.5029 58.9527 58.7912ZM64.4589 53.5558C63.5387 53.7451 62.8361 54.4998 62.3589 55.3088C61.3812 56.9662 61.1027 59.0213 61.6039 60.879C61.8289 61.7132 62.2136 62.5194 62.8172 63.1377C63.4208 63.756 64.2594 64.1711 65.1235 64.1568C65.7266 64.1468 66.312 63.9328 66.8359 63.634C68.5855 62.636 69.697 60.6136 69.6014 58.6021C69.5058 56.5906 68.2074 54.6827 66.3711 53.8551C65.7731 53.5856 65.1014 53.4236 64.4589 53.5558ZM51.7585 52.7311C50.1143 53.3401 49.0529 55.0471 48.8267 56.7853C48.6005 58.5236 49.0882 60.2819 49.7833 61.8912C49.9706 62.3246 50.1834 62.7652 50.5429 63.0713C50.9023 63.3775 51.4466 63.5147 51.855 63.2778C52.0451 63.1675 52.2227 63.4254 52.367 63.5912C52.6545 63.9215 53.1602 63.9496 53.5897 63.8639C55.0045 63.5812 56.0919 62.3451 56.532 60.9714C56.9574 59.6435 56.8666 58.2062 56.6153 56.8321L56.5887 56.6902C56.3235 55.3044 55.7245 53.747 54.3749 53.3343C53.6673 53.118 52.8137 53.2444 52.2667 52.7462C52.1346 52.6259 51.926 52.6691 51.7585 52.7311ZM77.8874 58.6069C78.4435 59.2229 78.2159 60.1796 77.9377 60.9701L77.9151 61.0338C77.8038 61.3438 77.6884 61.6611 77.4756 61.9124C77.2628 62.1638 76.9285 62.3394 76.606 62.2723C76.2834 62.2051 76.0321 61.8312 76.1676 61.531C76.3357 61.1584 76.9073 61.1394 77.1135 60.7865L76.5562 60.7339C76.1809 60.6985 75.7768 60.6508 75.4987 60.3963C75.2207 60.1418 75.1857 59.6031 75.5238 59.4363C75.7582 59.3207 76.0404 59.434 76.2573 59.5797C76.4742 59.7254 76.6817 59.9099 76.94 59.9496C77.1983 59.9893 77.5124 59.7865 77.4591 59.5307C77.3851 59.1747 77.5678 58.7805 77.8874 58.6069ZM65.1665 61.0118C65.2105 61.2567 65.2267 61.5165 65.135 61.7479C65.0433 61.9792 64.8198 62.1728 64.5711 62.1625C64.1859 62.1464 63.9796 61.7029 63.9124 61.3234C63.8293 60.8546 63.9591 60.2093 64.4341 60.1744C64.8407 60.1445 65.0943 60.6107 65.1665 61.0118ZM53.2989 60.0165C53.4908 60.2961 53.4636 60.6695 53.3874 60.9999C53.2899 61.4225 53.0447 61.8941 52.6131 61.9382C52.2233 61.9781 51.8905 61.6294 51.763 61.2591C51.6075 60.8071 51.683 60.2548 52.036 59.9324C52.389 59.61 53.0284 59.6224 53.2989 60.0165ZM53.6582 55.2463C53.8305 55.3254 53.9519 55.5424 53.8647 55.7108L53.6981 55.7545C52.7495 56.0075 51.7383 56.3597 51.2853 57.2171C51.1767 57.4225 51.1063 57.6493 50.9711 57.8383C50.8358 58.0273 50.6079 58.1776 50.3804 58.1297C50.1212 58.0752 49.9712 57.7769 49.9989 57.5135C50.0266 57.2501 50.1869 57.0205 50.3586 56.8188C51.0568 55.9987 52.0408 55.4265 53.0992 55.2252C53.2855 55.1898 53.4859 55.1671 53.6582 55.2463ZM65.7812 55.7198C66.0649 55.9483 66.2804 56.2528 66.567 56.4775C66.8092 56.6674 67.1152 56.8176 67.2252 57.1049C67.3353 57.3922 67.0042 57.798 66.7641 57.6056C66.137 57.1033 65.441 56.6872 64.7016 56.3726C64.3665 56.23 64.4425 55.6662 64.7695 55.5056C65.0964 55.3451 65.4976 55.4913 65.7812 55.7198ZM62.2681 53.9179C61.65 54.1216 61.2109 54.7718 61.2528 55.421C61.4892 55.3 61.6692 55.0741 61.7343 54.8167L61.725 54.7907C61.9994 54.574 62.1949 54.2597 62.2681 53.9179Z" fill="#2C2C2E"/>
<path fill-rule="evenodd" clip-rule="evenodd" d="M27.4429 131.726C27.6915 131.728 27.9202 131.843 28.1374 131.97L28.2548 132.04C29.5864 132.837 30.9915 133.511 32.4464 134.051C32.6463 134.126 32.5843 134.461 32.3894 134.548C32.1945 134.635 31.9696 134.557 31.7708 134.48L27.474 132.808C27.1991 132.701 26.8799 132.538 26.8558 132.244C26.8318 131.951 27.149 131.724 27.4429 131.726Z" fill="#E5E5EA"/>
<path fill-rule="evenodd" clip-rule="evenodd" d="M20.593 127.046L33.8852 131.76L33.9687 131.791C34.32 131.928 34.7 132.163 34.6624 132.526C34.6318 132.821 34.3047 133.012 34.0077 133.002C33.7564 132.994 33.5243 132.882 33.3022 132.759L33.182 132.691C31.3286 131.641 29.3842 130.774 27.3899 130.025C25.1308 129.176 22.8079 128.479 20.4813 127.837C20.1255 127.739 19.6746 127.421 19.8786 127.114C20.0217 126.898 20.349 126.96 20.593 127.046Z" fill="#E5E5EA"/>
</svg>
