<svg width="90" height="81" viewBox="0 0 90 81" fill="none" xmlns="http://www.w3.org/2000/svg">
<ellipse cx="44.8948" cy="53.9179" rx="44.2732" ry="26.7484" fill="#4D1876"/>
<rect x="0.621582" y="24.9432" width="88.5464" height="28.9747" fill="#4D1876"/>
<ellipse cx="44.8948" cy="27.1696" rx="44.2732" ry="26.7484" fill="#8704B3"/>
<circle cx="1.78735" cy="1.78735" r="1.78735" transform="matrix(1 0 0 -1 6.31055 34.7484)" fill="#C1C1C1" fill-opacity="0.5"/>
<circle cx="1.78735" cy="1.78735" r="1.78735" transform="matrix(1 0 0 -1 21.4961 45.2664)" fill="#C1C1C1" fill-opacity="0.5"/>
<circle cx="1.78735" cy="1.78735" r="1.78735" transform="matrix(1 0 0 -1 43.0586 48.8411)" fill="#C1C1C1" fill-opacity="0.5"/>
<circle cx="1.78735" cy="1.78735" r="1.78735" transform="matrix(1 0 0 -1 67.645 45.2664)" fill="#C1C1C1" fill-opacity="0.5"/>
<circle cx="1.78735" cy="1.78735" r="1.78735" transform="matrix(1 0 0 -1 81.5557 32.9611)" fill="#C1C1C1" fill-opacity="0.5"/>
<path d="M37.8344 36.1489C37.1195 36.1489 36.5077 35.8946 35.9991 35.3859C35.4905 34.8773 35.2357 34.2651 35.2349 33.5494V20.552C35.2349 19.8371 35.4896 19.2254 35.9991 18.7167C36.5086 18.2081 37.1204 17.9534 37.8344 17.9525H39.1341V15.353C39.1341 13.555 39.7679 12.0226 41.0356 10.7558C42.3033 9.48899 43.8357 8.85515 45.6328 8.85428C47.4299 8.85341 48.9628 9.48725 50.2313 10.7558C51.4999 12.0244 52.1333 13.5568 52.1315 15.353V17.9525H53.4313C54.1461 17.9525 54.7583 18.2072 55.2678 18.7167C55.7773 19.2262 56.0316 19.838 56.0308 20.552V33.5494C56.0308 34.2643 55.7764 34.8764 55.2678 35.3859C54.7592 35.8954 54.147 36.1498 53.4313 36.1489H37.8344ZM45.6328 29.6502C46.3477 29.6502 46.9599 29.3959 47.4694 28.8872C47.9789 28.3786 48.2332 27.7664 48.2323 27.0507C48.2314 26.335 47.9771 25.7232 47.4694 25.2155C46.9616 24.7077 46.3494 24.4529 45.6328 24.4512C44.9162 24.4495 44.3045 24.7042 43.7976 25.2155C43.2907 25.7267 43.0359 26.3384 43.0333 27.0507C43.0307 27.763 43.2855 28.3751 43.7976 28.8872C44.3097 29.3993 44.9214 29.6536 45.6328 29.6502ZM41.7336 17.9525H49.532V15.353C49.532 14.2699 49.153 13.3492 48.3948 12.591C47.6366 11.8329 46.7159 11.4538 45.6328 11.4538C44.5497 11.4538 43.629 11.8329 42.8709 12.591C42.1127 13.3492 41.7336 14.2699 41.7336 15.353V17.9525Z" fill="white"/>
</svg>
