<svg width="153" height="133" viewBox="0 0 153 133" fill="none" xmlns="http://www.w3.org/2000/svg">
<path d="M16.2287 119.551C14.1221 119.551 12.2421 119.125 10.5888 118.271C8.96208 117.391 7.68208 116.178 6.74875 114.631C5.81542 113.085 5.34875 111.338 5.34875 109.391C5.34875 107.445 5.80208 105.711 6.70875 104.191C7.64208 102.645 8.89542 101.431 10.4688 100.551C12.0421 99.6713 13.8154 99.2313 15.7888 99.2313C17.7088 99.2313 19.4021 99.6447 20.8688 100.471C22.3354 101.298 23.4821 102.445 24.3088 103.911C25.1621 105.378 25.5887 107.058 25.5887 108.951C25.5887 109.298 25.5621 109.671 25.5088 110.071C25.4821 110.445 25.4154 110.885 25.3088 111.391L8.54875 111.431V107.231L22.7088 107.191L20.0688 108.951C20.0421 107.831 19.8688 106.911 19.5488 106.191C19.2288 105.445 18.7488 104.885 18.1088 104.511C17.4954 104.111 16.7354 103.911 15.8288 103.911C14.8688 103.911 14.0288 104.138 13.3088 104.591C12.6154 105.018 12.0688 105.631 11.6688 106.431C11.2954 107.231 11.1088 108.205 11.1088 109.351C11.1088 110.498 11.3088 111.485 11.7088 112.311C12.1354 113.111 12.7221 113.738 13.4688 114.191C14.2421 114.618 15.1488 114.831 16.1888 114.831C17.1488 114.831 18.0154 114.671 18.7888 114.351C19.5621 114.005 20.2421 113.498 20.8288 112.831L24.1888 116.191C23.2288 117.311 22.0688 118.151 20.7088 118.711C19.3488 119.271 17.8554 119.551 16.2287 119.551ZM34.3503 119.111L26.1103 99.6713H32.7103L38.3103 115.871H35.4303L41.0303 99.6713H47.5103L39.2703 119.071L34.3503 119.111ZM58.5278 119.551C56.5278 119.551 54.7145 119.111 53.0878 118.231C51.4878 117.325 50.2211 116.098 49.2878 114.551C48.3545 113.005 47.8878 111.271 47.8878 109.351C47.8878 107.431 48.3545 105.711 49.2878 104.191C50.2211 102.671 51.4878 101.471 53.0878 100.591C54.6878 99.6847 56.5011 99.2313 58.5278 99.2313C60.5545 99.2313 62.3678 99.6713 63.9678 100.551C65.5678 101.431 66.8345 102.645 67.7678 104.191C68.7011 105.711 69.1678 107.431 69.1678 109.351C69.1678 111.271 68.7011 113.005 67.7678 114.551C66.8345 116.098 65.5678 117.325 63.9678 118.231C62.3678 119.111 60.5545 119.551 58.5278 119.551ZM58.5278 113.991C59.4078 113.991 60.1811 113.805 60.8478 113.431C61.5145 113.031 62.0211 112.485 62.3678 111.791C62.7411 111.071 62.9278 110.258 62.9278 109.351C62.9278 108.445 62.7411 107.658 62.3678 106.991C61.9945 106.298 61.4745 105.765 60.8078 105.391C60.1678 104.991 59.4078 104.791 58.5278 104.791C57.6745 104.791 56.9145 104.991 56.2478 105.391C55.5811 105.765 55.0611 106.298 54.6878 106.991C54.3145 107.685 54.1278 108.485 54.1278 109.391C54.1278 110.271 54.3145 111.071 54.6878 111.791C55.0611 112.485 55.5811 113.031 56.2478 113.431C56.9145 113.805 57.6745 113.991 58.5278 113.991ZM72.2147 119.111V90.0713H78.3347V119.111H72.2147ZM93.8444 119.511C92.5377 119.511 91.3377 119.258 90.2444 118.751C89.151 118.245 88.2577 117.551 87.5644 116.671C86.871 115.765 86.471 114.738 86.3644 113.591V105.391C86.471 104.245 86.871 103.205 87.5644 102.271C88.2577 101.338 89.151 100.605 90.2444 100.071C91.3377 99.538 92.5377 99.2713 93.8444 99.2713C95.6844 99.2713 97.311 99.7113 98.7244 100.591C100.164 101.471 101.284 102.671 102.084 104.191C102.911 105.711 103.324 107.445 103.324 109.391C103.324 111.338 102.911 113.071 102.084 114.591C101.284 116.111 100.164 117.311 98.7244 118.191C97.311 119.071 95.6844 119.511 93.8444 119.511ZM92.7244 113.991C93.6044 113.991 94.3644 113.791 95.0044 113.391C95.671 112.991 96.191 112.445 96.5644 111.751C96.9377 111.058 97.1244 110.271 97.1244 109.391C97.1244 108.485 96.9377 107.685 96.5644 106.991C96.191 106.298 95.671 105.765 95.0044 105.391C94.3644 104.991 93.6177 104.791 92.7644 104.791C91.911 104.791 91.151 104.991 90.4844 105.391C89.8444 105.765 89.3377 106.298 88.9644 106.991C88.591 107.685 88.4044 108.485 88.4044 109.391C88.4044 110.271 88.5777 111.058 88.9244 111.751C89.2977 112.445 89.8177 112.991 90.4844 113.391C91.151 113.791 91.8977 113.991 92.7244 113.991ZM82.6444 127.311V99.6713H88.7644V104.671L87.7644 109.391L88.6844 114.111V127.311H82.6444ZM119.273 119.111V108.031C119.273 107.018 118.953 106.205 118.313 105.591C117.7 104.951 116.913 104.631 115.953 104.631C115.287 104.631 114.7 104.778 114.193 105.071C113.687 105.338 113.287 105.738 112.993 106.271C112.7 106.778 112.553 107.365 112.553 108.031L110.193 106.871C110.193 105.351 110.513 104.018 111.153 102.871C111.793 101.725 112.687 100.845 113.833 100.231C114.98 99.5913 116.3 99.2713 117.793 99.2713C119.313 99.2713 120.647 99.5913 121.793 100.231C122.94 100.845 123.82 101.711 124.433 102.831C125.073 103.925 125.393 105.205 125.393 106.671V119.111H119.273ZM106.433 119.111V90.0713H112.553V119.111H106.433ZM135.324 119.191L127.324 99.6713H133.924L139.004 115.151H136.564L141.764 99.6713H148.364L140.044 119.191H135.324ZM130.324 127.311L136.164 114.711L140.044 119.191L136.604 127.311H130.324Z" fill="url(#paint0_linear_333_1601)"/>
<path fill-rule="evenodd" clip-rule="evenodd" d="M105.417 61.2533C105.991 60.3494 105.779 59.164 104.962 58.4751L100.514 54.7231C99.4708 53.8429 97.8915 54.1268 97.0794 55.2276C93.6559 59.8676 88.1115 64.1316 83.1311 66.2212C77.3742 68.6364 70.9894 69.0716 64.963 67.4596C59.17 65.9099 54.018 62.5515 50.2388 57.874C55.074 51.7417 66.6962 37.2795 67.8559 38.4497C68.5169 39.1167 69.4705 41.4226 70.5191 43.9581C71.7996 47.0548 73.2218 50.4939 74.4259 51.7089C76.6159 53.9188 102.896 22.9806 102.896 22.9806L105.019 20.7333C105.695 20.0173 105.823 18.9312 105.289 18.1017C100.886 11.2656 94.4984 5.94724 86.9805 2.88748C78.9493 -0.381065 70.075 -0.890102 61.7284 1.43901C53.382 3.76798 46.0277 8.80562 40.8019 15.7734C35.576 22.7413 32.7693 31.2517 32.8155 39.9898C32.8617 48.728 35.7581 57.2077 41.0572 64.1189C46.3564 71.0301 53.7635 75.9883 62.1341 78.2275C70.5048 80.4666 79.3733 79.8621 87.3694 76.5073C94.7978 73.3908 101.089 68.0617 105.417 61.2533ZM91.4295 18.9497C88.6928 16.4671 85.6624 14.3629 82.8511 13.2188C77.0691 10.8655 70.68 10.499 64.6709 12.1759C58.6619 13.8526 53.3671 17.4795 49.6048 22.4959C45.8425 27.5124 43.8219 33.6394 43.8551 39.9304C43.8792 44.5001 44.9861 48.9716 47.0522 52.9835C53.7224 42.2086 68.3615 19.0711 70.0459 20.7707C71.0556 21.7896 72.1963 24.2177 73.2867 26.539C74.5615 29.2525 75.7676 31.8201 76.6159 31.8201C77.7803 31.8201 86.8084 23.3561 91.4295 18.9497Z" fill="url(#paint1_linear_333_1601)"/>
<defs>
<linearGradient id="paint0_linear_333_1601" x1="76.5" y1="79.1113" x2="76.5" y2="132.111" gradientUnits="userSpaceOnUse">
<stop stop-color="#AF46FF"/>
<stop offset="1" stop-color="#5C1D8D"/>
</linearGradient>
<linearGradient id="paint1_linear_333_1601" x1="69.2779" y1="0" x2="69.2779" y2="79.5556" gradientUnits="userSpaceOnUse">
<stop stop-color="#AF46FF"/>
<stop offset="1" stop-color="#5C1D8D"/>
</linearGradient>
</defs>
</svg>
