<svg width="131" height="114" viewBox="0 0 131 114" fill="none" xmlns="http://www.w3.org/2000/svg">
    <path fill-rule="evenodd" clip-rule="evenodd" d="M129.442 8.44878C104.825 -5.67386 85.6304 35.7811 71.689 40.9998C43.5922 51.5173 -8.59539 60.6648 1.35728 81.1123C15.023 109.188 62.5722 111.99 96.5754 109.188C140.803 105.545 177.842 36.2152 129.442 8.44878Z" fill="white" fill-opacity="0.48"/>
    <path fill-rule="evenodd" clip-rule="evenodd" d="M48.7833 24.6699C47.8267 20.4196 50.433 13.3645 55.0898 10.5278C59.7466 7.69104 65.7031 7.49672 70.8893 9.18129C70.724 4.17263 75.8049 -0.125339 80.8006 0.28847C85.7963 0.702278 89.9413 5.18617 90.6125 10.1524C91.1355 14.022 89.1485 18.6313 85.3061 19.3322C86.6643 24.1837 87.4195 29.2882 86.674 34.2707C85.9285 39.2532 83.5567 44.1203 79.554 47.1811C78.4489 48.6671 79.2836 50.9088 80.7384 52.0549C82.1933 53.2011 84.0762 53.6039 85.817 54.2364C93.1114 56.8867 98.247 64.0812 99.4441 71.7473C100.641 79.4134 98.2502 87.3638 93.929 93.8089C90.9693 98.2234 86.943 102.144 81.9056 103.842C74.835 106.225 67.0827 103.904 60.2169 100.984C57.5997 99.8701 54.9344 98.6047 53.0869 96.4427C51.1063 94.125 47.3631 95.3768 44.6637 96.7944C46.4586 97.5389 48.2535 98.2833 50.0484 99.0278C50.4341 99.1878 50.8525 99.3779 51.0314 99.7551C51.4079 100.549 50.4804 101.313 49.6954 101.708C48.8518 102.133 48.0081 102.558 47.1645 102.983C41.9864 105.589 36.5935 108.253 30.7981 108.414C24.4619 108.59 18.4767 105.759 12.7743 102.992C12.1405 102.684 11.4686 102.342 11.124 101.727C10.7794 101.113 10.972 100.155 11.6531 99.9749C18.0503 98.2836 24.1068 95.3152 29.3621 91.2956C28.9601 88.7932 29.0549 86.2122 29.6393 83.7461C29.7238 83.3894 29.8454 82.9983 30.1633 82.8157C30.945 82.3668 31.624 83.5494 31.7621 84.44C32.1108 86.6881 32.4594 88.9362 32.808 91.1843C36.9943 90.7213 41.0573 89.184 44.5011 86.7598C41.8151 84.5973 39.1291 82.4348 36.4431 80.2723C34.8933 79.0246 33.3973 78.2782 32.5603 75.8349C32.0023 74.2061 32.4527 72.5329 33.9114 70.8153C32.283 62.7024 31.5705 56.5867 31.7739 52.4683C31.8282 51.369 31.9512 50.1822 32.6914 49.3674C33.9979 47.9292 36.5632 48.5494 37.7557 50.0834C38.9483 51.6175 39.1479 53.6761 39.3021 55.6128C43.8427 55.0582 48.3833 54.5036 52.924 53.949C54.5852 53.7461 56.3055 53.5479 57.9045 54.0422C59.9105 54.6623 61.5216 56.4187 61.9662 58.4702C63.8822 57.9525 65.9692 57.3149 67.0512 55.6515C68.1333 53.9881 67.2168 51.095 65.2339 51.1808C59.0312 51.4491 52.965 46.8477 51.5532 40.8036C51.1942 39.2663 51.0547 37.5581 49.9752 36.406C48.2647 34.5804 46.9613 32.2268 46.9697 29.7254C46.9781 27.224 48.0264 26.9255 48.7833 24.6699ZM11.758 101.651C11.8976 101.859 12.1414 101.968 12.3722 102.067C14.7409 103.081 17.1095 104.094 19.4781 105.107C20.5559 105.569 21.6371 106.031 22.7642 106.353C25.9075 107.252 29.2946 107.033 32.4199 107.993C32.799 108.109 33.2059 107.989 33.5833 107.868C36.3091 106.99 39.0028 106.013 41.6574 104.939C44.4345 103.815 47.1866 102.575 49.6523 100.874C49.8766 100.719 50.1094 100.547 50.2118 100.295C50.3141 100.042 50.2198 99.6908 49.9576 99.6164C48.2936 99.1439 46.6536 98.5865 45.0463 97.9472C44.5296 97.7417 43.9479 97.4487 43.8382 96.9037C42.4222 96.9605 41.184 97.8534 40.1395 98.8109C39.095 99.7685 38.1139 100.85 36.8269 101.443C35.5399 102.036 33.8126 101.985 32.921 100.884C32.8258 100.766 32.7302 100.631 32.5838 100.592C32.4374 100.554 32.2493 100.7 32.3175 100.835C32.4943 101.185 32.1146 101.627 31.7233 101.603C31.332 101.579 31.0261 101.222 30.9298 100.842C30.8335 100.462 30.3107 101.141 29.553 101.254C28.7953 101.367 27.9914 100.881 27.7397 100.158C27.5323 99.5615 26.7191 99.551 26.0977 99.4394C24.6847 99.1857 23.6117 97.7056 23.8105 96.2842C19.7497 97.6381 15.7626 99.2127 11.8726 100.999C11.6444 101.103 11.6183 101.442 11.758 101.651Z" fill="white"/>
    <path d="M68.7669 43.1739C69.9592 43.1739 70.9258 42.2075 70.9258 41.0155C70.9258 39.8235 69.9592 38.8572 68.7669 38.8572C67.5745 38.8572 66.6079 39.8235 66.6079 41.0155C66.6079 42.2075 67.5745 43.1739 68.7669 43.1739Z" fill="#FFAB01"/>
    <path d="M53.7812 41.3971C54.4124 41.3971 54.9241 40.8853 54.9241 40.2541C54.9241 39.6228 54.4124 39.1111 53.7812 39.1111C53.1499 39.1111 52.6382 39.6228 52.6382 40.2541C52.6382 40.8853 53.1499 41.3971 53.7812 41.3971Z" fill="#FFAB01"/>
    <path fill-rule="evenodd" clip-rule="evenodd" d="M79.0765 49.678C79.2744 50.704 79.862 51.6978 80.6445 52.3142C82.0993 53.4603 85.3694 54.6404 87.1103 55.2729C87.2687 55.3305 86.3755 55.8348 85.2224 56.9499C82.1008 59.969 75.2752 65.3751 68.607 62.6583C67.8276 62.3408 67.1759 61.9752 66.6451 61.5877C66.1559 61.2307 70.6454 61.745 74.8424 60.9496C79.0623 60.1498 82.9884 58.0366 81.9375 56.3614C80.9497 54.7867 78.1716 52.1196 77.955 50.5508C77.6663 48.4607 78.9064 48.7963 79.0765 49.678Z" fill="#E5E5EA"/>
    <path fill-rule="evenodd" clip-rule="evenodd" d="M11.6724 101.057C11.6724 100.22 14.3132 99.5425 18.8276 97.8448C21.9326 96.6772 27.9847 93.2987 30.9624 93.1413C32.9438 93.0366 40.862 95.9346 46.0297 98.016C48.6281 99.0625 50.6324 99.718 50.6324 100.054C50.6324 100.728 45.1153 103.984 39.4766 106.124C36.7243 107.168 34.1421 108.104 31.7739 108.04C24.5541 107.848 11.6724 103.177 11.6724 101.057Z" fill="white"/>
    <path fill-rule="evenodd" clip-rule="evenodd" d="M113.669 31.5171C103.315 35.9377 94.6665 43.4914 86.4259 51.1727L85.9218 51.6431C85.4411 52.0923 84.7114 52.562 84.1927 52.1573L85.7939 50.7C94.1723 43.09 102.835 35.5442 113.201 31.061C121.171 27.6141 121.087 28.3498 113.669 31.5171ZM69.0733 105.151L73.9299 110.439C74.1679 110.699 74.4158 110.977 74.4824 111.322C74.549 111.668 74.3487 112.089 73.9987 112.126L63.9992 113.171C62.3383 113.345 60.6445 112.194 60.1662 110.594C59.688 108.995 60.4535 107.121 61.9 106.287C63.3466 105.453 65.3308 105.716 66.5315 106.876C66.829 107.163 67.3513 106.919 67.5625 106.564C67.7737 106.208 67.8193 105.772 68.0375 105.421C68.2557 105.069 68.7935 104.846 69.0733 105.151ZM61.0095 108.203C60.3894 109.38 60.7815 110.973 61.8429 111.775C62.363 112.168 63.0015 112.378 63.645 112.482C64.5539 112.629 65.6084 112.518 66.1927 111.807C66.4061 111.547 66.5368 111.229 66.626 110.905C66.923 109.826 66.772 108.632 66.216 107.662C66.0646 107.397 65.8318 107.122 65.5276 107.135C65.383 107.141 65.2488 107.214 65.1048 107.229C64.8653 107.254 64.6435 107.117 64.4252 107.015C63.2193 106.454 61.6296 107.027 61.0095 108.203ZM68.6418 106.212C68.4509 107.007 68.0558 107.754 67.5047 108.359C67.3495 108.529 67.3875 108.793 67.419 109.021C67.5722 110.133 67.3189 111.297 66.7173 112.245C67.7032 112.011 68.7113 111.872 69.7235 111.829C71.111 111.77 72.5586 111.881 73.8303 111.323C73.1509 111.027 72.5742 110.502 72.2175 109.852C72.0076 109.471 71.7174 109.14 71.4295 108.813L69.2182 106.301C69.0584 106.12 68.6982 105.976 68.6418 106.212ZM43.529 106.164C43.846 107.154 45.0387 107.493 46.072 107.671L52.9674 108.822C54.5618 109.089 56.1983 109.354 57.7839 109.04C58.083 108.981 58.2413 109.456 58.0439 109.688C57.8465 109.921 57.5031 109.948 57.1981 109.949C55.8167 109.954 54.4433 109.77 53.0761 109.565L51.6199 109.343C49.0425 108.947 46.4663 108.525 43.9435 107.869C43.5117 107.757 43.0644 107.628 42.7338 107.328C42.4032 107.029 42.2313 106.506 42.4639 106.125C42.6965 105.744 43.3929 105.739 43.529 106.164ZM80.8006 0.28847C85.7963 0.702279 89.9413 5.18617 90.6125 10.1524C91.1355 14.022 89.1485 18.6313 85.3061 19.3322C86.6643 24.1837 87.4195 29.2882 86.674 34.2707C85.9285 39.2532 83.5567 44.1203 79.554 47.1811C78.4489 48.6671 79.2836 50.9088 80.7384 52.0549C82.1933 53.2011 84.0762 53.6039 85.817 54.2365C93.1114 56.8868 98.247 64.0812 99.4441 71.7473C100.641 79.4134 98.2502 87.3638 93.929 93.8089C90.9693 98.2235 86.943 102.144 81.9056 103.842C74.9057 106.201 67.2376 103.95 60.4231 101.071L60.2169 100.984C57.6542 99.8933 55.0454 98.6574 53.2034 96.5767L53.0869 96.4427C51.1064 94.125 47.3631 95.3768 44.6637 96.7944L50.0484 99.0279C50.4341 99.1878 50.8525 99.3779 51.0314 99.7551C51.4079 100.549 50.4804 101.313 49.6954 101.709L46.5337 103.3C41.5485 105.801 36.3585 108.259 30.7981 108.414C24.5356 108.588 18.616 105.824 12.9734 103.088L12.6153 102.914C12.0308 102.625 11.4399 102.29 11.124 101.727C10.7794 101.113 10.972 100.155 11.6531 99.9749C18.0503 98.2836 24.1068 95.3153 29.3621 91.2956C28.9601 88.7933 29.0549 86.2122 29.6393 83.7461L29.669 83.6262C29.7532 83.3051 29.8807 82.978 30.1633 82.8157C30.945 82.3668 31.624 83.5494 31.7621 84.44L32.808 91.1843C36.9943 90.7213 41.0573 89.184 44.5011 86.7599L36.2265 80.0976C34.745 78.8993 33.2451 77.6039 32.5603 75.8349C31.8422 73.9797 32.4199 71.4648 34.2757 70.7469C34.4222 63.7191 34.0516 56.6807 33.1681 49.7072C31.9463 56.6721 32.9282 63.8128 33.9114 70.8153C32.2255 64.9812 31.4955 58.8723 31.7583 52.8053L31.7739 52.4683C31.8282 51.369 31.9512 50.1823 32.6914 49.3675C33.9979 47.9292 36.5632 48.5494 37.7558 50.0835C38.9483 51.6175 39.1479 53.6761 39.3021 55.6128L53.2361 53.9112C54.7998 53.7241 56.4055 53.5788 57.9045 54.0422C59.9105 54.6623 61.5216 56.4187 61.9662 58.4702L62.293 58.381C64.1153 57.877 66.0305 57.2208 67.0513 55.6515C68.1218 54.0058 67.2361 51.1564 65.2968 51.1791L65.2339 51.1808C59.0312 51.4491 52.965 46.8477 51.5532 40.8036C51.1942 39.2664 51.0547 37.5581 49.9752 36.406C48.2647 34.5804 46.9613 32.2268 46.9697 29.7254C46.9781 27.224 48.5735 24.6443 51.0031 24.0464C53.4327 23.4484 56.3081 25.4749 56.0985 27.9675C57.2772 27.8475 58.4829 28.0009 59.5941 28.4122C58.9604 26.7043 60.6029 24.8191 62.408 24.5712C64.2132 24.3233 65.9722 25.2247 67.4734 26.2572C68.9745 27.2896 70.4089 28.5051 72.1542 29.0284L72.2347 28.8423C72.5954 28.0004 72.9276 27.1012 72.7458 26.2112C72.5506 25.2552 71.4732 24.4285 70.601 24.8662C69.9887 23.1124 69.0144 21.4857 67.757 20.1181L64.2625 21.7651C63.8122 21.091 63.5364 20.3015 63.469 19.4937C61.1617 20.812 58.6573 21.7848 56.065 22.3699L56.3303 20.3913L48.5837 24.4138C47.4398 19.0835 50.433 13.3645 55.0898 10.5278C59.7466 7.69104 65.7031 7.49672 70.8894 9.18129C70.724 4.17263 75.8049 -0.125339 80.8006 0.28847ZM118.911 87.1662C114.448 88.2428 110.116 89.8593 106.039 91.9693L105.744 92.1232C103.485 93.3131 101.267 94.7387 99.8512 96.8544C100.807 96.6887 101.828 96.9378 102.601 97.5254C103.088 97.8966 103.496 98.4531 103.467 99.0653C103.452 99.3826 103.32 99.6854 103.142 99.9487C102.448 100.978 100.977 101.395 99.8447 100.885C98.7127 100.375 98.0515 98.997 98.3624 97.7952C93.5597 99.4345 89.4309 102.961 87.0573 107.445L86.9779 107.597C86.861 107.822 86.7181 108.075 86.4701 108.131C86.1291 108.208 85.8255 107.828 85.8411 107.478C85.8567 107.129 86.0805 106.828 86.2968 106.554C89.0955 103.001 92.3663 99.6192 96.552 97.9044L96.8673 97.7777C97.8547 97.3861 98.8882 97.0018 99.5259 96.1667C101.072 94.1412 103.299 92.7508 105.56 91.574C107.583 90.5208 109.676 89.6014 111.821 88.8237C113.973 88.0434 116.174 87.4068 118.379 86.7899L125.849 84.7107C123.828 86.1303 121.312 86.587 118.911 87.1662ZM23.8105 96.2843C19.7497 97.6382 15.7626 99.2127 11.8726 100.999C11.6444 101.103 11.6183 101.442 11.758 101.651C11.8976 101.859 12.1414 101.969 12.3722 102.067L19.4781 105.108C20.5559 105.569 21.6371 106.031 22.7642 106.353C25.9075 107.252 29.2946 107.033 32.4199 107.993C32.799 108.109 33.2059 107.989 33.5833 107.868C36.3091 106.99 39.0028 106.013 41.6574 104.939C44.4345 103.815 47.1866 102.575 49.6523 100.874C49.8766 100.719 50.1094 100.547 50.2118 100.295C50.3141 100.042 50.2198 99.6908 49.9576 99.6164C48.2936 99.1439 46.6536 98.5866 45.0463 97.9473L44.9348 97.9018C44.4489 97.6986 43.94 97.4098 43.8382 96.9037C42.4222 96.9606 41.184 97.8534 40.1395 98.811C39.095 99.7685 38.1139 100.85 36.8269 101.443C35.5399 102.036 33.8126 101.985 32.921 100.884L32.8635 100.812C32.7855 100.716 32.7009 100.623 32.5838 100.592C32.4374 100.554 32.2493 100.7 32.3175 100.835C32.4943 101.185 32.1146 101.627 31.7233 101.603C31.332 101.579 31.0261 101.222 30.9298 100.842C30.8679 100.598 30.8733 100.346 30.9029 100.094L30.9104 100.032C30.7364 100.648 30.191 101.159 29.553 101.254C28.7953 101.367 27.9914 100.881 27.7397 100.158C27.5323 99.5615 26.7191 99.551 26.0977 99.4395C24.6847 99.1858 23.6117 97.7056 23.8105 96.2843ZM33.4069 72.5606C32.5699 74.0491 33.3473 75.9328 34.3783 77.2942C37.6114 81.5635 43.0266 83.6123 46.7214 87.4891C47.6498 88.4632 48.459 89.5424 49.2579 90.6258L51.7689 94.0351C52.2304 94.6616 52.6936 95.2902 53.2321 95.852C54.6363 97.3169 56.4852 98.262 58.314 99.1418C62.0246 100.927 65.8419 102.567 69.8705 103.419C73.8992 104.271 78.1798 104.3 82.056 102.911C85.684 101.61 88.8101 99.116 91.2389 96.1243C93.6099 93.2038 95.3502 89.8185 96.7452 86.3237L96.8466 86.0679C97.0473 85.5582 97.2445 85.0249 97.2029 84.4787C97.1588 83.9012 96.851 83.376 96.4917 82.9216C95.1218 81.189 92.8323 80.209 90.6398 80.4798C88.4816 80.7464 86.5054 82.2435 85.7148 84.2666L85.6781 84.3633C83.96 89.0194 79.6817 92.5213 74.8756 93.764C70.0694 95.0066 64.8419 94.1162 60.4551 91.7932C56.0682 89.4703 52.4886 85.7931 49.8196 81.6086L49.6739 81.3776C49.1918 80.6039 48.7534 79.7899 48.5836 78.8973C48.3969 77.9155 48.5868 76.8112 49.296 76.1069C49.7645 75.6416 50.4313 75.3686 50.772 74.8031C51.1128 74.2376 50.7126 73.2388 50.084 73.4408L49.6646 73.5735C46.7751 74.4723 43.4228 75.1696 41.0982 73.2993L40.8748 73.1206C39.7902 72.2589 38.6312 71.4366 37.2837 71.1402C35.8433 70.8234 34.1296 71.2754 33.4069 72.5606ZM44.9249 87.6496C41.4202 89.8634 37.4649 91.361 33.3726 92.0238C32.8323 92.1113 32.6871 92.8115 32.6786 93.3586C32.6516 95.0974 32.7358 96.838 32.9306 98.5661C33.3739 98.3576 33.5552 97.8362 33.8574 97.4507C34.1596 97.0652 34.8493 96.8541 35.0829 97.2846C35.2461 97.5853 35.0283 97.962 34.7502 98.1614C34.4721 98.3609 34.1301 98.4689 33.8821 98.7047C33.2652 99.2913 33.5877 100.445 34.3393 100.845C35.091 101.245 36.0419 101.036 36.7626 100.583C37.4832 100.129 38.04 99.4646 38.6511 98.8718C39.958 97.6041 41.5566 96.6386 43.2872 96.0719C45.4841 95.3525 47.9305 95.2456 49.8633 93.9776C49.9935 93.8922 50.1282 93.7919 50.1773 93.6442C50.2444 93.4425 50.131 93.233 50.0105 93.0535L47.698 89.6966C47.3296 89.1619 46.9057 88.5875 46.2745 88.4345C45.986 88.3645 45.6783 88.3916 45.3951 88.3023C45.1119 88.213 44.8451 87.9355 44.9249 87.6496ZM28.7796 92.526C27.878 92.9468 27.3444 93.9363 27.2256 94.924C27.1069 95.9116 27.3401 96.9061 27.617 97.8615C27.7871 98.448 27.9756 99.0328 28.2568 99.5749C28.4361 99.9205 28.6735 100.265 29.0328 100.416C29.3921 100.566 29.8907 100.431 30.0075 100.059C30.0556 99.9062 30.0341 99.7408 30.0062 99.5828C29.9016 98.9892 29.7138 98.4103 29.4504 97.8681L29.3397 97.6483C29.1812 97.3313 29.032 96.9573 29.2357 96.6806C29.4303 96.4164 29.9086 96.3072 29.8629 95.9823L29.4163 92.809C29.4033 92.7163 29.388 92.6183 29.3277 92.5467C29.2009 92.3958 28.9582 92.4426 28.7796 92.526ZM100.263 97.4204C99.9654 97.419 99.6521 97.4601 99.4131 97.6375C99.2732 97.7413 99.1675 97.8865 99.0932 98.044C98.7791 98.71 99.0689 99.5661 99.6642 99.9997C100.259 100.433 101.084 100.474 101.774 100.214C102.301 100.015 102.808 99.5655 102.79 99.0026C102.776 98.5585 102.439 98.1878 102.067 97.9445C101.536 97.597 100.898 97.4232 100.263 97.4204ZM30.4713 83.5337C30.3951 83.5903 30.3574 83.6838 30.3252 83.7731C29.8564 85.0736 29.799 86.4833 29.8119 87.8656C29.8444 91.3315 30.2898 94.7933 31.1357 98.1546L31.1778 98.3182C31.3507 98.9745 31.5871 99.6476 32.1226 100.054C32.2222 94.727 31.8765 89.3922 31.0903 84.1229C31.0392 83.7809 30.7489 83.3274 30.4713 83.5337ZM26.2491 94.9828C26.1372 95.0142 26.0653 95.1209 26.0095 95.2228C25.5523 96.0568 25.5214 97.1106 25.929 97.9699C26.1117 98.3552 26.4251 98.7298 26.849 98.777C27.0218 98.562 26.9428 98.2519 26.846 97.9885L26.7624 97.7654C26.4513 96.9223 26.1959 96.0097 26.4701 95.1622C26.5059 95.0516 26.3611 94.9515 26.2491 94.9828ZM24.7239 96.1382C24.4032 96.8508 24.5461 97.7475 25.0723 98.3253C25.2895 98.1033 25.194 97.7397 25.1198 97.4381C25.0037 96.9662 24.9775 96.4724 25.043 95.9908C24.9621 95.8722 24.7828 96.0072 24.7239 96.1382ZM31.482 70.7393C31.968 71.1578 32.277 72.061 31.6998 72.3408C31.33 72.52 30.911 72.2579 30.5618 72.0413C28.7472 70.9158 26.4272 70.8329 24.37 71.4054C22.3128 71.978 20.4737 73.1444 18.7476 74.4012C17.0286 75.6528 15.3712 77.0262 14.0787 78.7144C12.7862 80.4025 11.8719 82.4369 11.7969 84.5615C11.707 87.1073 12.8072 89.5411 14.0794 91.7483C14.8902 93.1551 15.8046 94.5421 17.0633 95.5635L17.322 95.768C17.6791 96.0546 18.0457 96.41 17.9546 96.841C16.7209 96.7853 15.8254 95.6818 15.146 94.6508C14.1799 93.1848 13.2992 91.6624 12.51 90.0941C11.8537 88.79 11.2538 87.4312 11.0544 85.9851C10.6795 83.2653 11.784 80.4998 13.5008 78.3569C15.2176 76.214 17.5024 74.6059 19.8133 73.1225C21.5686 71.9957 23.3751 70.9149 25.3455 70.2304C27.3776 69.5244 29.852 69.3358 31.482 70.7393ZM83.6314 58.7603C80.7093 61.487 76.8252 63.1621 72.836 63.4158C71.0729 63.5279 69.2524 63.3595 67.6571 62.6007C66.0618 61.8419 64.7181 60.4271 64.3473 58.7002L64.2149 58.7411C63.0602 59.1063 61.7382 59.7672 61.7498 60.9569C61.7991 66.0022 61.6817 71.0491 61.3977 76.0866C61.3432 77.0533 60.975 78.3223 60.007 78.2939C56.5677 78.1928 53.1058 78.9867 50.0545 80.5763C53.489 85.9609 58.3734 90.6688 64.4491 92.641C70.5249 94.6133 77.8526 93.3808 82.1102 88.6198C83.475 87.0937 84.4795 85.2895 85.4467 83.4821L85.6694 83.0651C85.8751 82.6795 86.0845 82.2214 85.9016 81.8245C85.7848 81.5711 86.0365 81.3079 86.2676 81.1515C89.6651 78.8527 94.7237 79.4764 97.4607 82.5316C97.2438 82.1075 97.441 81.5231 97.8704 81.3169C98.2118 81.8653 98.284 82.5727 98.0606 83.1788C98.2085 83.388 98.4798 83.0514 98.5033 82.7963C98.8682 78.8248 98.8396 74.8174 98.4179 70.8515C98.2659 69.4215 98.0593 67.9826 97.5475 66.6386C97.0986 65.4601 96.4242 64.3798 95.6851 63.3578C93.9847 61.0066 91.9176 58.921 89.5813 57.1996L89.4116 57.0762C89.0412 56.8111 88.6513 56.5668 88.2136 56.4476C86.4812 55.9761 84.944 57.5355 83.6314 58.7603ZM60.026 56.4757C58.0943 57.1256 56.0026 57.0006 53.9694 57.1411C51.1041 57.339 48.2775 58.0839 45.687 59.3238C44.5712 59.8579 43.4919 60.4855 42.3119 60.8569C39.806 61.6458 36.9333 61.1586 34.8278 59.5877C34.3739 63.052 34.5078 66.5924 35.222 70.0125C35.2679 70.2322 35.4126 70.5132 35.6272 70.4473C37.0512 70.0101 38.5828 70.6286 39.849 71.4133C41.1151 72.1979 42.305 73.1762 43.7432 73.5645C45.4302 74.02 47.2181 73.599 48.888 73.0699L49.013 73.03C49.869 72.7552 50.9761 72.5261 51.525 73.2379C51.9879 73.8383 51.6956 74.735 51.2055 75.3134C50.7153 75.8918 50.0506 76.3217 49.6507 76.9658C49.1597 77.7566 49.1572 78.8248 49.6444 79.6179C52.8336 78.3392 56.247 77.6219 59.6813 77.5087C60.3699 77.486 60.6115 76.595 60.6538 75.9074C61.0247 69.8824 61.1386 63.8416 60.995 57.8069C60.9797 57.1637 60.636 56.2705 60.026 56.4757ZM111.66 72.7679L111.796 72.8364C112.642 73.2661 113.542 73.8386 113.668 74.7644C113.709 75.0693 113.657 75.3792 113.585 75.6782C113.484 76.0922 113.332 76.517 113.01 76.7961C112.668 77.092 112.189 77.176 111.737 77.1585C110.848 77.124 109.959 76.7099 109.444 75.9847C108.929 75.2594 108.846 74.2221 109.326 73.4735C109.807 72.725 110.863 72.373 111.66 72.7679ZM110.341 73.8037C109.814 74.0235 109.624 74.7359 109.844 75.2626C110.064 75.7894 110.587 76.136 111.129 76.3137C111.684 76.4953 112.399 76.4805 112.73 75.9993C112.84 75.8392 112.892 75.6462 112.922 75.4543C112.989 75.0364 112.948 74.5737 112.679 74.2472C112.346 73.8429 111.776 73.7617 111.245 73.7316L111.113 73.725C110.852 73.7134 110.582 73.7034 110.341 73.8037ZM43.821 62.9138C43.8876 63.1667 43.8364 63.4336 43.7908 63.6911C43.4701 65.5048 43.4469 67.3707 43.7218 69.1919L43.7726 69.5143C43.8061 69.7423 43.8198 69.9829 43.6888 70.1664C43.5376 70.3781 43.1139 70.3568 43.0927 70.0975C42.9123 67.8909 42.7967 65.679 42.7461 63.4656C42.7365 63.0428 42.8468 62.4806 43.2686 62.4481C43.5294 62.428 43.7543 62.6609 43.821 62.9138ZM28.9781 58.4919C29.29 58.5857 29.5897 58.7992 29.6801 59.1121C29.7705 59.4249 29.5647 59.8203 29.2396 59.8408C28.9367 59.8599 28.7054 59.584 28.427 59.463C27.9272 59.2456 27.3665 59.5491 26.9071 59.8422L26.6732 59.9932C26.2321 60.2836 25.8047 60.6094 25.5625 61.0725C25.3147 61.5462 25.294 62.103 25.3016 62.6375C25.307 63.0091 25.3244 63.3861 25.4393 63.7395C25.6886 64.5063 26.4001 65.0807 27.1892 65.2469C27.9783 65.4132 28.8223 65.1978 29.4899 64.7454L29.6206 64.6566C29.7384 64.5789 29.862 64.5113 30.0007 64.5046C30.1913 64.4954 30.4 64.6751 30.3352 64.8546C30.3158 64.9084 30.2759 64.952 30.236 64.993C29.1448 66.1135 27.2607 66.3534 25.9234 65.542C25.6849 65.3972 25.4625 65.2225 25.2822 65.0096C24.7403 64.3695 24.6392 63.4726 24.6243 62.6342C24.6162 62.1805 24.6275 61.7199 24.7564 61.2849C25.0352 60.3448 25.8228 59.6466 26.6414 59.1066C27.3365 58.6482 28.1807 58.2521 28.9781 58.4919ZM22.6652 56.5632L25.3854 59.7927C25.2358 59.9546 24.9735 59.9652 24.7713 59.8773C24.5916 59.7992 24.4483 59.6595 24.3132 59.516L22.7172 57.7999C22.4995 59.5417 21.9724 61.2443 21.1677 62.8044C21.0894 62.9563 21.3113 63.0845 21.4813 63.1019C21.8964 63.1446 22.3162 63.0971 22.7256 63.0161L22.9366 62.9735C23.2672 62.9078 23.6062 62.8563 23.9143 62.9784C24.2886 63.1266 24.5195 63.6711 24.2194 63.9392C24.0344 64.1046 23.7542 64.084 23.508 64.0535L20.8587 63.726L20.7773 63.7143C20.5157 63.6715 20.2283 63.5691 20.1899 63.3171C20.1668 63.1652 20.2512 63.02 20.3302 62.8882C21.2732 61.3149 21.9014 59.554 22.1681 57.7394L22.2083 57.4516C22.2601 57.0984 22.3519 56.7152 22.6652 56.5632ZM115.345 61.6372C115.673 61.8694 115.983 62.3253 115.729 62.6367C115.569 62.8316 115.263 62.8364 115.034 62.7316C114.805 62.6267 114.627 62.4388 114.43 62.2828C113.62 61.643 112.405 61.5756 111.529 62.1219C111.405 62.1997 111.281 62.2963 111.23 62.4342C111.18 62.5721 111.236 62.7573 111.377 62.7989C112.494 62.3257 113.826 62.3918 114.891 62.9735C115.044 63.0575 115.206 63.1694 115.244 63.3406C115.282 63.5118 115.098 63.7171 114.945 63.6315C114.25 63.2426 113.421 63.0995 112.636 63.233C112.27 63.2953 111.912 63.4156 111.541 63.4274C111.17 63.4391 110.764 63.3153 110.567 63.0008C110.385 62.7105 110.428 62.3188 110.606 62.0257C110.783 61.7327 111.073 61.5251 111.377 61.367C112.614 60.7235 114.207 60.8319 115.345 61.6372ZM78.2832 45.9364C75.6307 48.1655 72.5138 49.8394 69.1907 50.8209L68.9688 50.8853C68.5374 51.0084 67.9945 51.2815 68.0852 51.7208L68.1411 51.9934C68.3069 52.8129 68.4474 53.6475 68.3292 54.4722C68.2017 55.3615 67.7113 56.2517 66.8997 56.6254L66.825 56.658C65.3799 57.2527 65.1768 59.4107 66.1245 60.653C67.0722 61.8954 68.7156 62.3764 70.268 62.5559C74.8242 63.0826 79.5789 61.5555 82.9755 58.4742C84.2075 57.3567 85.3099 56.0189 86.8352 55.355L83.0208 53.9592C81.9918 53.5826 80.9494 53.1992 80.0537 52.5681C79.1581 51.9371 78.4112 51.0183 78.2281 49.9383C78.0038 48.6154 78.6382 47.2304 78.2832 45.9364ZM34.2837 49.5132C34.188 49.5558 34.0903 49.6123 34.0442 49.7063C33.9981 49.8005 34.0137 49.9118 34.03 50.0154L34.9039 55.5226C35.1614 57.1456 35.5232 58.9441 36.8621 59.8973C38.3288 60.9414 40.3429 60.5324 42.0508 59.9362L42.142 59.9041C45.3211 58.7753 48.3808 57.2039 51.7128 56.6752C54.1051 56.2957 56.6138 56.4581 58.8759 55.5923C58.0485 54.3438 56.2559 54.3504 54.7563 54.5142L42.5056 55.9061C41.5565 56.0139 40.5596 56.1398 39.7889 56.7038C39.4516 56.9506 39.1323 57.2897 38.7147 57.3069C38.3084 57.3237 37.9552 56.7321 38.2737 56.5146L38.3018 56.4973C38.651 56.3052 38.6275 55.804 38.556 55.412L38.1855 53.381C37.9982 52.3735 37.7694 51.3483 37.1665 50.5258C36.5153 49.6375 35.2904 49.066 34.2837 49.5132ZM118.859 57.7446C119.154 58.0885 119.167 58.6162 118.97 59.0245C118.773 59.4327 118.4 59.7329 117.997 59.9398C117.51 60.1894 116.974 60.3197 116.437 60.4308L116.169 60.4853C116.063 60.5064 115.953 60.5272 115.851 60.4934C115.766 60.4652 115.698 60.4018 115.642 60.332C115.365 59.9847 115.375 59.4723 115.562 59.0696C115.749 58.6668 116.085 58.3538 116.43 58.0735C116.782 57.7871 117.165 57.5172 117.607 57.4125C118.049 57.3077 118.563 57.4002 118.859 57.7446ZM117.41 58.349L117.269 58.444C117.057 58.5888 116.854 58.7469 116.712 58.9581C116.538 59.2162 116.478 59.5762 116.649 59.8358L117.785 59.2037C117.97 59.1008 118.162 58.9919 118.282 58.8175C118.402 58.6431 118.426 58.3829 118.278 58.2318C118.055 58.0051 117.675 58.173 117.41 58.349ZM99.2841 45.9164C99.3634 45.9485 99.417 46.0203 99.4633 46.0937L101.128 48.812C101.426 49.2978 102.102 49.3519 102.671 49.3119C103.76 49.2352 104.839 49.013 105.87 48.6529C106.043 48.5925 106.207 48.8125 106.169 48.9918C106.132 49.171 105.978 49.2987 105.833 49.4113L103.333 51.3597C103.026 51.3379 103.113 50.8355 103.362 50.6546L103.436 50.6032C103.676 50.4413 103.967 50.2815 103.952 50.0035L102.507 50.4547C102.231 50.5409 101.924 50.6256 101.662 50.5045C101.487 50.424 101.365 50.266 101.255 50.107L99.419 47.4283L99.3874 49.774C99.3848 49.9664 99.3766 50.175 99.2544 50.3237C99.1677 50.4292 99.038 50.4859 98.9086 50.5336L96.3756 51.4422C97.052 52.1185 98.3181 51.4069 99.1276 51.9165C99.6822 52.2656 99.7769 53.0435 99.6572 53.6877C99.5376 54.3319 99.2633 54.9586 99.299 55.6129C99.7612 55.2776 100.101 54.7769 100.241 54.2236C100.297 54.0005 100.325 53.7631 100.45 53.5694C100.792 53.0353 101.609 53.1439 102.176 53.4296C102.742 53.7153 103.33 54.1266 103.95 53.9907L103.05 52.5535C102.968 52.4223 102.883 52.2803 102.891 52.1259C102.898 51.9714 103.045 51.8152 103.193 51.86C103.258 51.8797 103.306 51.9311 103.349 51.9847L105.355 54.5843C104.65 55.0486 103.721 54.7561 102.907 54.532L102.787 54.5004C101.993 54.3041 101.024 54.2846 100.586 54.9569C100.277 55.4308 99.9149 55.8697 99.508 56.2626C99.3366 56.4281 99.1411 56.5931 98.9043 56.6201C98.6675 56.6472 98.3954 56.4677 98.4164 56.2304L98.6496 53.6018C98.6647 53.4316 98.6762 53.2463 98.5813 53.1042C98.4814 52.9545 98.2931 52.8963 98.1196 52.8484L95.9281 52.2434C95.4517 52.1118 95.4482 51.3704 95.8056 51.029C96.1629 50.6877 96.6893 50.6161 97.1656 50.484C97.6419 50.352 98.157 50.0716 98.243 49.585L98.7991 46.4357C98.8467 46.1665 99.0306 45.8138 99.2841 45.9164ZM40.3234 1.51518L39.9187 1.84397C37.2221 4.04085 34.5649 6.34398 32.5872 9.19976C30.5106 12.1983 29.2357 15.9167 29.854 19.511C30.7549 24.7488 35.4413 28.9202 35.6417 34.2311C35.6683 34.9366 36.3869 35.3756 36.9881 35.746C39.3607 37.2078 41.1189 39.5278 42.2791 42.0611C43.403 44.5153 44.003 47.1745 44.4393 49.8396L44.4811 50.0976C44.546 50.504 44.5935 50.9666 44.3313 51.2838C44.069 51.601 43.3947 51.4899 43.4209 51.0792C43.7286 46.2504 41.9732 41.3241 38.6808 37.7774C37.8256 36.856 36.8321 36.002 35.6277 35.6412C35.5509 37.5012 34.9245 39.3965 33.5985 40.7034C32.2724 42.0103 30.1805 42.6074 28.4638 41.8862C26.7472 41.165 25.697 38.9875 26.4696 37.2937C27.1168 35.8748 28.7241 35.1581 30.2544 34.856C31.756 34.5596 33.3126 34.5442 34.8197 34.8107C35.0225 34.8465 35.1108 34.5631 35.1068 34.3573C34.9978 28.8369 29.8935 24.515 29.2235 19.0343C28.8573 16.0391 29.8796 13.024 31.3631 10.3961C33.3113 6.94513 36.0828 3.9623 39.3819 1.76581L39.4683 1.70978C39.7325 1.54349 40.0406 1.40165 40.3234 1.51518ZM57.1297 29.6316C56.3911 30.1066 56.4101 31.1606 56.349 32.0364C56.2652 33.2378 55.852 34.4403 55.0462 35.3355C54.2404 36.2307 53.0161 36.7806 51.8208 36.6304C51.5116 36.5915 51.4176 37.0388 51.4582 37.3477C52.153 42.6423 55.3658 47.8405 60.3593 49.7363C63.4121 50.8954 66.8605 50.7414 69.9729 49.7535C73.0112 48.7891 75.7612 47.0739 78.2744 45.1106L78.4579 44.9665C78.8223 44.6787 79.1887 44.3789 79.442 43.9898C79.6989 43.5951 79.8253 43.1283 79.8869 42.6615C80.2166 40.1606 78.5449 37.5437 76.1366 36.791C75.8531 36.7024 75.9187 36.2427 76.1674 36.0805C76.4161 35.9183 76.7363 35.9293 77.0203 35.8425C77.7897 35.6075 78.1437 34.7315 78.3193 33.9466C78.5605 32.8682 78.6283 31.6384 77.9598 30.7584C77.0563 29.569 75.2997 29.5706 73.8102 29.6845L71.3933 29.8695C70.5592 29.9333 69.4854 30.2272 69.4463 31.0627C69.362 32.862 68.5692 34.6544 67.1684 35.7874C65.7676 36.9203 63.7503 37.3121 62.0874 36.6185C60.4509 35.936 59.2948 34.155 59.4838 32.3966L59.494 32.3115C59.5925 31.5677 59.5383 30.76 59.1024 30.1492C58.6665 29.5384 57.7609 29.2257 57.1297 29.6316ZM77.0918 1.51405C76.0141 1.82034 74.9789 2.31435 74.1281 3.04316C72.9391 4.0617 72.1486 5.53353 71.9563 7.08703C71.8881 7.63747 71.9976 8.34739 72.5324 8.49526C73.8386 8.85651 75.0074 9.6942 75.769 10.815C74.5341 10.0803 73.1803 9.54579 71.7765 9.23849L77.71 12.595C78.054 12.7896 78.4111 12.9962 78.6274 13.3268C78.8436 13.6575 78.8663 14.1509 78.5691 14.4114L78.1543 14.0887C77.1148 13.2843 76.0521 12.5046 74.8886 11.8959C74.0039 11.4331 73.0701 11.074 72.1313 10.7319L71.6189 10.5464C69.8809 9.9196 68.1271 9.28878 66.2966 9.03832C64.5975 8.80585 62.8531 8.90907 61.1933 9.34027L60.866 9.42414C58.6238 9.99137 56.2859 10.4552 54.4322 11.8257C53.3295 12.6409 52.466 13.7323 51.646 14.8314L51.4526 15.0937C49.8236 17.3297 48.335 20.0864 49.2881 22.6519C53.664 22.113 57.0731 18.7282 61.0372 16.7988C61.3402 16.6513 61.8399 16.6062 61.8859 16.9399L57.4501 19.5604C57.5733 20.2371 57.4569 20.9549 57.1263 21.5581C60.3671 20.6425 63.397 18.9894 65.9215 16.7611L66.082 16.6181C66.4824 16.2577 67.254 15.9595 67.4246 16.4704L67.2075 16.5916C66.4115 17.0393 65.6196 17.5289 65.0709 18.2538C64.4722 19.0446 64.2339 20.1942 64.7645 21.0321L70.3643 17.7359C70.5917 17.602 70.8398 17.4633 71.1024 17.4909C71.3649 17.5184 71.611 17.8011 71.4976 18.0394L71.3072 18.0791C70.7027 18.2074 70.0898 18.3683 69.6192 18.7619C69.099 19.197 68.8296 20.0125 69.2162 20.5696C69.9095 21.5689 70.4721 22.6587 70.8852 23.8026C70.8942 23.3024 71.5762 23.0466 72.0258 23.2662C72.4754 23.4858 72.7133 23.9815 72.8762 24.4545C73.3423 25.8077 73.4654 27.2774 73.231 28.6892C74.6392 29.1862 76.2907 28.5991 77.6452 29.2278C78.9024 29.8115 79.5175 31.3253 79.4301 32.7082C79.3427 34.0912 78.6891 35.37 77.991 36.5672C79.942 38.0782 80.9842 40.6811 80.615 43.1206C80.9552 43.0651 81.2426 42.7716 81.2909 42.4304L82.0646 42.9185C80.8544 43.6024 79.9934 44.8714 79.8054 46.2484C85.1225 41.2742 86.8878 33.3906 86.1207 26.1511L86.0907 25.8811C85.7867 23.2669 85.0632 20.5418 83.0966 18.8102C84.151 18.2024 85.5033 18.4415 86.6314 17.9851C87.6974 17.554 88.43 16.5545 88.9248 15.5168C90.579 12.0477 90.0094 7.63369 87.5285 4.69789C85.0476 1.76209 80.7896 0.463128 77.0918 1.51405ZM59.7097 45.0218C59.8774 45.0495 60.0677 45.1062 60.1334 45.2629C60.2383 45.5132 59.9444 45.742 59.69 45.8368C59.3207 45.9743 58.933 46.0624 58.5404 46.0979C58.2111 46.1277 57.7956 46.0641 57.6938 45.7496C57.6268 45.5428 57.7431 45.3105 57.9192 45.1829C58.0953 45.0554 58.3179 45.0123 58.5341 44.9889C58.925 44.9466 59.3217 44.9577 59.7097 45.0218ZM53.6948 41.4343C54.852 42.7938 56.6622 43.5137 58.4478 43.5278C60.2333 43.5419 61.9851 42.8965 63.4675 41.9013L63.5922 41.8176C63.7805 41.6925 63.9758 41.575 64.1966 41.5366C64.4665 41.4897 64.7874 41.6029 64.8791 41.861C63.3287 43.1775 61.3851 44.0469 59.3592 44.2306C57.3333 44.4144 55.2349 43.8948 53.5818 42.7096C53.2836 42.4958 52.9753 42.2144 52.963 41.8477C52.9507 41.4811 53.457 41.1549 53.6948 41.4343ZM29.4405 35.6758C28.6358 35.9324 27.826 36.3084 27.3184 36.9833C26.5643 37.9857 26.6962 39.5067 27.5106 40.4607C28.3251 41.4147 29.7023 41.7956 30.931 41.5421C32.1597 41.2885 33.2265 40.4597 33.9169 39.4125C34.6074 38.3653 34.9455 37.1151 35.0479 35.865C35.065 35.6555 35.027 35.3781 34.8202 35.3396C33.0358 35.0077 31.1696 35.1243 29.4405 35.6758ZM57.9527 30.7912C57.9863 31.0795 57.8747 31.3624 57.7721 31.634C57.1927 33.1684 56.8399 34.7882 56.7289 36.4246C56.7109 36.6897 56.7007 36.9645 56.7979 37.2118C56.8897 37.4453 57.1028 37.6484 57.35 37.6624L57.3939 37.6628C57.6189 37.6549 57.7256 37.9901 57.5841 38.1651C57.4426 38.3401 57.1771 38.3598 56.9614 38.2956C56.5184 38.1637 56.2009 37.7515 56.0723 37.3077C55.9438 36.8639 55.9767 36.39 56.041 35.9325C56.2593 34.3812 56.8258 32.8772 56.8535 31.3109C56.8614 30.8689 56.9517 30.2731 57.3925 30.2379C57.682 30.2148 57.9191 30.5029 57.9527 30.7912ZM63.4589 25.5558C62.5387 25.7451 61.8361 26.4998 61.3589 27.3088C60.3812 28.9662 60.1027 31.0213 60.6039 32.879C60.8289 33.7132 61.2136 34.5194 61.8172 35.1377C62.4208 35.756 63.2594 36.1711 64.1235 36.1568C64.7266 36.1468 65.312 35.9328 65.8359 35.634C67.5855 34.636 68.697 32.6136 68.6014 30.6021C68.5058 28.5906 67.2074 26.6827 65.3711 25.8551C64.7731 25.5856 64.1014 25.4236 63.4589 25.5558ZM50.7585 24.7311C49.1143 25.3401 48.0529 27.0471 47.8267 28.7853C47.6005 30.5236 48.0882 32.2819 48.7833 33.8912C48.9706 34.3246 49.1834 34.7652 49.5429 35.0713C49.9023 35.3775 50.4466 35.5147 50.855 35.2778C51.0451 35.1675 51.2227 35.4254 51.367 35.5912C51.6545 35.9215 52.1602 35.9496 52.5897 35.8639C54.0045 35.5812 55.0919 34.3451 55.532 32.9714C55.9574 31.6435 55.8666 30.2062 55.6153 28.8321L55.5887 28.6902C55.3235 27.3044 54.7245 25.747 53.3749 25.3343C52.6673 25.118 51.8137 25.2444 51.2667 24.7462C51.1346 24.6259 50.926 24.6691 50.7585 24.7311ZM76.8874 30.6069C77.4435 31.2229 77.2159 32.1796 76.9377 32.9701L76.9151 33.0338C76.8038 33.3438 76.6884 33.6611 76.4756 33.9124C76.2628 34.1638 75.9285 34.3394 75.606 34.2723C75.2834 34.2051 75.0321 33.8312 75.1676 33.531C75.3357 33.1584 75.9073 33.1394 76.1135 32.7865L75.5562 32.7339C75.1809 32.6985 74.7768 32.6508 74.4987 32.3963C74.2207 32.1418 74.1857 31.6031 74.5238 31.4363C74.7582 31.3207 75.0404 31.434 75.2573 31.5797C75.4742 31.7254 75.6817 31.9099 75.94 31.9496C76.1983 31.9893 76.5124 31.7865 76.4591 31.5307C76.3851 31.1747 76.5678 30.7805 76.8874 30.6069ZM64.1665 33.0118C64.2105 33.2567 64.2267 33.5165 64.135 33.7479C64.0433 33.9792 63.8198 34.1728 63.5711 34.1625C63.1859 34.1464 62.9796 33.7029 62.9124 33.3234C62.8293 32.8546 62.9591 32.2093 63.4341 32.1744C63.8407 32.1445 64.0943 32.6107 64.1665 33.0118ZM52.2989 32.0165C52.4908 32.2961 52.4636 32.6695 52.3874 32.9999C52.2899 33.4225 52.0447 33.8941 51.6131 33.9382C51.2233 33.9781 50.8905 33.6294 50.763 33.2591C50.6075 32.8071 50.683 32.2548 51.036 31.9324C51.389 31.61 52.0284 31.6224 52.2989 32.0165ZM52.6582 27.2463C52.8305 27.3254 52.9519 27.5424 52.8647 27.7108L52.6981 27.7545C51.7495 28.0075 50.7383 28.3597 50.2853 29.2171C50.1767 29.4225 50.1063 29.6493 49.9711 29.8383C49.8358 30.0273 49.6079 30.1776 49.3804 30.1297C49.1212 30.0752 48.9712 29.7769 48.9989 29.5135C49.0266 29.2501 49.1869 29.0205 49.3586 28.8188C50.0568 27.9987 51.0408 27.4265 52.0992 27.2252C52.2855 27.1898 52.4859 27.1671 52.6582 27.2463ZM64.7812 27.7198C65.0649 27.9483 65.2804 28.2528 65.567 28.4775C65.8092 28.6674 66.1152 28.8176 66.2252 29.1049C66.3353 29.3922 66.0042 29.798 65.7641 29.6056C65.137 29.1033 64.441 28.6872 63.7016 28.3726C63.3665 28.23 63.4425 27.6662 63.7695 27.5056C64.0964 27.3451 64.4976 27.4913 64.7812 27.7198ZM61.2681 25.9179C60.65 26.1216 60.2109 26.7718 60.2528 27.421C60.4892 27.3 60.6692 27.0741 60.7343 26.8167L60.725 26.7907C60.9994 26.574 61.1949 26.2597 61.2681 25.9179Z" fill="#2C2C2E"/>
    <path fill-rule="evenodd" clip-rule="evenodd" d="M26.4429 103.726C26.6915 103.728 26.9202 103.843 27.1374 103.97L27.2548 104.04C28.5864 104.837 29.9915 105.511 31.4464 106.051C31.6463 106.126 31.5843 106.461 31.3894 106.548C31.1945 106.635 30.9696 106.557 30.7708 106.48L26.474 104.808C26.1991 104.701 25.8799 104.538 25.8558 104.244C25.8318 103.951 26.149 103.724 26.4429 103.726Z" fill="#E5E5EA"/>
    <path fill-rule="evenodd" clip-rule="evenodd" d="M19.593 99.0461L32.8852 103.76L32.9687 103.791C33.32 103.928 33.7 104.163 33.6624 104.526C33.6318 104.821 33.3047 105.012 33.0077 105.002C32.7564 104.994 32.5243 104.882 32.3022 104.759L32.182 104.691C30.3286 103.641 28.3842 102.774 26.3899 102.025C24.1308 101.176 21.8079 100.479 19.4813 99.8371C19.1255 99.7389 18.6746 99.4211 18.8786 99.1136C19.0217 98.898 19.349 98.9596 19.593 99.0461Z" fill="#E5E5EA"/>
</svg>
