<svg width="108" height="212" viewBox="0 0 108 212" fill="none" xmlns="http://www.w3.org/2000/svg">
<path d="M107.384 151.195V119.531L80.3083 135.363V167.027L107.384 151.195Z" fill="#BF00FF"/>
<path d="M53.2329 151.195L80.3083 167.027V135.363L53.2329 119.531V151.195Z" fill="#C03BFE"/>
<path d="M107.384 119.531L80.3083 103.699L53.2329 119.531L80.3083 135.363L107.384 119.531Z" fill="#AC00E6"/>
<path d="M107.384 119.99V88.3254L80.3083 104.158V135.822L107.384 119.99Z" fill="#BF00FF"/>
<path d="M53.2329 119.99L80.3083 135.822V104.158L53.2329 88.3254V119.99Z" fill="#C03BFE"/>
<path d="M107.384 88.3254L80.3083 72.4932L53.2329 88.3254L80.3083 104.158L107.384 88.3254Z" fill="#AC00E6"/>
<path d="M107.384 88.7843V57.1199L80.3083 72.9521V104.616L107.384 88.7843Z" fill="#BF00FF"/>
<path d="M53.2329 88.7843L80.3083 104.616V72.9521L53.2329 57.1199V88.7843Z" fill="#C03BFE"/>
<path d="M107.384 57.1199L80.3083 41.2877L53.2329 57.1199L80.3083 72.9521L107.384 57.1199Z" fill="#AC00E6"/>
<path d="M107.384 57.8082V26.6027L80.3083 42.2055V73.411L107.384 57.8082Z" fill="#BF00FF"/>
<path d="M53.2329 57.8082L80.3083 73.411V42.2055L53.2329 26.6027V57.8082Z" fill="#C03BFE"/>
<path d="M107.384 26.6027L80.3083 11L53.2329 26.6027L80.3083 42.2055L107.384 26.6027Z" fill="#AC00E6"/>
<path d="M80.7669 158.538V126.873L53.6916 142.706V174.37L80.7669 158.538Z" fill="#BF00FF"/>
<path d="M26.6162 158.538L53.6916 174.37V142.706L26.6162 126.873V158.538Z" fill="#C03BFE"/>
<path d="M80.7669 126.873L53.6916 111.041L26.6162 126.873L53.6916 142.706L80.7669 126.873Z" fill="#AC00E6"/>
<path d="M80.7669 127.332V95.6679L53.6916 111.5V143.164L80.7669 127.332Z" fill="#BF00FF"/>
<path d="M26.6162 127.332L53.6916 143.164V111.5L26.6162 95.6679V127.332Z" fill="#C03BFE"/>
<path d="M80.7669 95.6679L53.6916 79.8357L26.6162 95.6679L53.6916 111.5L80.7669 95.6679Z" fill="#AC00E6"/>
<path d="M80.7669 96.3562V65.1507L53.6916 80.7535V111.959L80.7669 96.3562Z" fill="#BF00FF"/>
<path d="M26.6162 96.3562L53.6916 111.959V80.7535L26.6162 65.1507V96.3562Z" fill="#C03BFE"/>
<path d="M80.7669 65.1507L53.6916 49.548L26.6162 65.1507L53.6916 80.7535L80.7669 65.1507Z" fill="#AC00E6"/>
<path d="M54.1507 196.168V164.503L27.0753 180.336V212L54.1507 196.168Z" fill="#BF00FF"/>
<path d="M0 196.168L27.0753 212V180.336L0 164.503V196.168Z" fill="#C03BFE"/>
<path d="M54.1507 164.503L27.0753 148.671L0 164.503L27.0753 180.336L54.1507 164.503Z" fill="#AC00E6"/>
<path d="M54.1507 164.962V133.298L27.0753 149.13V180.795L54.1507 164.962Z" fill="#BF00FF"/>
<path d="M0 164.962L27.0753 180.795V149.13L0 133.298V164.962Z" fill="#C03BFE"/>
<path d="M54.1507 133.298L27.0753 117.466L0 133.298L27.0753 149.13L54.1507 133.298Z" fill="#AC00E6"/>
<path d="M54.1507 133.986V102.781L27.0753 118.384V149.589L54.1507 133.986Z" fill="#BF00FF"/>
<path d="M0 133.986L27.0753 149.589V118.384L0 102.781V133.986Z" fill="#C03BFE"/>
<path d="M54.1507 102.781L27.0753 87.1781L0 102.781L27.0753 118.384L54.1507 102.781Z" fill="#AC00E6"/>
<g clip-path="url(#clip0_513_2659)">
<path d="M27.073 13.9961L34.7533 12.5139C34.7533 12.5139 35.3928 9.29203 35.2008 8.71328C35.0088 8.13453 34.8284 6.87776 33.7415 6.4908C32.6546 6.10384 31.1903 3.02164 27.5455 5.47125C23.9008 7.92086 25.8525 10.8399 25.8525 10.8399L27.073 13.9961Z" fill="url(#paint0_linear_513_2659)"/>
<path d="M32.4822 7.53085C32.4822 7.53085 28.6604 9.01812 27.7905 9.38152C26.9207 9.74492 26.4548 10.8032 26.4548 10.8032C26.4548 10.8032 26.0274 10.5474 26.0274 11.2776C26.0274 12.0078 26.383 13.6532 26.6418 14.0721C27.0868 14.7823 27.492 15.517 27.8557 16.2727C28.2096 17.0265 28.0811 18.5911 27.7187 18.8098C27.3564 19.0285 20.9017 24.8766 20.9017 24.8766L15.5338 19.2658L9.10411 12.8725L6.38263 7.16072C6.38263 7.16072 3.78803 2.88064 3.44409 2.37591C0.772693 -1.59124 0.149924 0.274564 0.00633609 1.80557C-0.0354045 2.25141 0.103175 3.95234 0.380333 4.30397L12.9142 20.287L15.7526 21.2964L20.8933 24.8682L22.7783 28.0833L40.6199 31.3136L42.939 40.6847L45.1095 28.302L45.8091 25.807C45.8175 25.777 45.8351 25.7504 45.8595 25.7312C45.8839 25.712 45.9137 25.7011 45.9446 25.7002C45.9756 25.6992 46.006 25.7083 46.0315 25.726C46.057 25.7437 46.0762 25.7691 46.0863 25.7986L46.4853 26.9511C46.3067 27.3532 46.6523 26.8081 46.4853 26.9511L47.3018 27.6123C47.5807 27.8386 47.7889 28.1412 47.9014 28.4838C48.0139 28.8263 48.026 29.1944 47.9362 29.5437L45.1964 40.2304C45.1964 40.2304 33.9247 19.7789 33.3537 18.5675C33.0966 18.0241 33.3704 16.7169 33.5207 16.0439C33.6576 15.4265 33.9565 14.6559 34.247 14.4355C34.5375 14.2151 35.0434 13.1939 35.0434 12.7531C35.0434 12.3123 35.1285 10.9226 34.7545 11.2911C34.6527 11.392 34.1551 10.603 34.0099 9.94513C33.7709 8.99604 33.2353 8.14959 32.4822 7.53085Z" fill="url(#paint1_linear_513_2659)"/>
<path d="M20.7001 48.696C20.7001 48.696 18.1239 70.0224 17.9653 71.3852C17.8067 72.748 18.8402 79.8781 18.8402 81.2408C18.8402 82.6036 21.3663 97.1263 21.3663 97.1263L25.36 96.9446C25.36 96.9446 24.5653 75.5509 24.6438 74.5095C24.7222 73.468 29.0967 61.0501 29.0967 61.0501C29.0967 61.0501 29.4156 64.3358 29.4156 65.3773C29.4156 66.4187 30.626 96.6703 30.626 96.6703H34.1072L39.0576 52.1164L38.9625 51.2584L20.7001 48.696Z" fill="url(#paint2_linear_513_2659)"/>
<path d="M31.0083 24.2118C30.951 24.2903 30.8755 24.3535 30.7884 24.3959C30.7013 24.4383 30.6052 24.4585 30.5086 24.4549C30.4119 24.4512 30.3176 24.4238 30.2339 24.375C30.1501 24.3262 30.0795 24.2574 30.0282 24.1748C29.8241 23.8664 29.64 23.5449 29.4773 23.2124C29.1934 22.6421 27.0062 19.3782 27.0062 19.3782C27.0062 19.3782 22.7203 19.067 21.7836 18.6531C20.8186 18.2274 19.9254 18.4747 18.8234 18.1399C17.835 17.8405 15.207 16.3263 14.5408 16.0016C12.7944 15.1469 11.7576 14.0954 9.11121 10.9543C7.2045 8.6864 6.54834 6.84247 6.22443 6.58001C5.0774 5.6429 2.26074 7.53731 2.26074 7.53731C2.26074 7.53731 7.2262 17.0884 8.88414 18.6598C10.7024 20.3776 14.2637 22.775 17.0035 23.4059C19.1223 23.8955 21.3445 28.2311 21.5466 29.0437C22.1192 31.4193 20.2943 46.8774 20.2943 46.8774C20.2943 46.8774 20.2242 49.8065 20.7952 50.0925C21.2961 50.3449 27.4554 52.7205 28.8729 53.2672C28.9105 53.2816 28.9507 53.2882 28.9909 53.2866C29.0311 53.285 29.0707 53.2753 29.1071 53.2581C29.1436 53.2408 29.1762 53.2164 29.2031 53.1861C29.2299 53.1559 29.2505 53.1206 29.2636 53.0822L30.1685 50.4677C30.172 50.4564 30.179 50.4465 30.1884 50.4395C30.1979 50.4325 30.2093 50.4287 30.2211 50.4287C30.2328 50.4287 30.2443 50.4325 30.2537 50.4395C30.2632 50.4465 30.2702 50.4564 30.2737 50.4677L31.1385 53.3278C31.1625 53.3961 31.2102 53.4534 31.2728 53.4889C31.3355 53.5245 31.4088 53.536 31.4792 53.5213L39.0576 51.8776C39.0576 51.8776 38.9524 37.7873 39.0826 35.4336C39.2095 33.127 38.9156 31.8433 39.328 32.4658C39.7805 33.164 40.789 40.3075 41.3015 41.2463C41.7139 42.0051 42.9344 42.3635 43.9011 42.5317C44.2754 42.5983 44.6604 42.5634 45.0169 42.4307C45.3734 42.2979 45.6884 42.0721 45.9297 41.7763L46.9799 40.4859C47.2755 40.1225 47.1469 38.2684 47.1068 37.794C46.9816 36.2344 46.995 34.0153 47.1586 32.9621C47.3723 31.6044 43.9295 33.4231 43.9295 31.9207C43.9295 29.4509 41.9894 23.8534 41.9894 23.8534C41.9894 23.8534 41.6338 22.3527 39.0826 21.567C36.5314 20.7813 34.6097 19.6474 34.1255 19.6524C33.6714 19.6524 32.2438 22.3864 31.606 23.1721C31.3239 23.5304 31.374 23.6953 31.0083 24.2118Z" fill="url(#paint3_linear_513_2659)"/>
<path d="M33.6998 96.6232L30.6694 96.6535C30.6694 96.6535 30.0449 99.5708 29.7194 100.787C29.6977 100.865 29.6342 101.063 29.5908 101.206C29.5437 101.415 29.5235 101.629 29.5307 101.844C29.5925 102.949 30.0015 103.885 30.9766 104.384C32.0502 104.933 32.8783 105.437 34.0203 104.384C35.1623 103.331 35.3143 102.668 34.8752 100.839C34.4361 99.0105 34.2958 96.6955 34.0253 96.6333" fill="#4B44BE"/>
<path d="M17.7332 100.397C19.9688 99.7711 21.4648 97.1078 21.4648 97.1078L25.2882 96.9076C25.2882 96.9076 25.4869 99.5995 25.5971 100.982C25.7407 102.803 25.3817 103.615 24.0093 103.518C22.2061 103.388 14.8464 103.972 13.6927 103.323C12.19 102.481 15.6395 100.982 17.7332 100.397Z" fill="#4B44BE"/>
<path opacity="0.07" d="M29.7061 58.8815C29.2136 60.3351 27.2919 63.1515 26.0614 64.8288C24.8309 66.5062 20.9557 70.0898 21.2011 74.4472C21.4465 78.8047 24.0678 89.9912 24.0678 90.9972C24.0678 92.0033 23.0878 96.7595 22.3465 98.2165C21.6051 99.6735 21.2562 102.32 21.6252 102.32C22.3245 102.299 23.0199 102.206 23.7005 102.042C24.3366 101.874 25.2132 101.706 25.5705 101.538C25.8226 101.42 25.876 100.597 25.876 100.597C25.9009 100.244 25.8607 99.8902 25.7575 99.5524C25.674 99.3353 25.3618 98.2266 25.3501 97.907C25.1948 93.8103 24.8492 84.3349 24.9193 83.672C25.0462 82.4303 24.0695 76.1801 24.9611 73.0996C25.8527 70.0191 29.7061 58.8815 29.7061 58.8815Z" fill="black"/>
<path opacity="0.07" d="M20.4431 51.1019L19.7886 56.2131C19.7886 56.2131 20.4564 57.268 20.6234 56.3814C20.7903 55.4947 22.1995 53.8073 21.3497 52.6077C20.4998 51.4081 20.4431 51.1019 20.4431 51.1019Z" fill="black"/>
<path opacity="0.07" d="M39.0089 52.5353L38.7801 54.9714L38.4813 57.3268C38.4813 57.3268 37.5162 58.0318 37.5312 57.1182C37.5463 56.2046 35.905 54.8116 37.1522 53.8829C38.3994 52.9542 39.0089 52.5353 39.0089 52.5353Z" fill="black"/>
<path opacity="0.07" d="M26.9877 19.427C27.1546 19.39 26.1528 19.6659 27.0327 19.3731C28.5354 18.8684 27.911 16.0083 27.911 16.0083C27.911 16.0083 28.0662 17.08 29.4938 17.5107C30.8929 17.9313 31.307 17.6201 29.1598 18.6413C27.0478 19.6507 28.1364 19.999 28.2799 21.3113" fill="black"/>
<path opacity="0.07" d="M21.6485 31.4243L20.2944 47.1449C20.2944 47.1449 20.3111 49.7577 20.7953 50.1514C21.2795 50.5451 22.7989 50.7974 23.1495 51.0498C23.5001 51.3021 27.2033 52.537 26.2366 50.4525C26.0196 49.9882 21.0107 47.1583 23.2463 44.2141C25.482 41.2699 25.0829 37.1563 24.0093 34.2962C22.9358 31.4361 21.6318 27.1644 21.6318 27.1644L21.6485 31.4243Z" fill="black"/>
<path opacity="0.07" d="M44.1232 32.3681C44.1232 32.3681 45.2719 32.7702 46.252 32.358C47.7179 31.7423 46.7746 37.0066 47.0667 38.7294C47.2888 40.0248 45.9164 42.8749 43.8945 42.5367C41.8725 42.1985 41.1997 41.9916 40.7739 39.2964C40.45 37.2337 43.5889 36.6398 43.5889 34.6764C43.5889 32.713 44.1232 32.3681 44.1232 32.3681Z" fill="black"/>
<path opacity="0.07" d="M39.0424 36.5977C39.0424 36.5977 39.6284 31.0054 39.0424 29.0453C38.4563 27.0853 37.9404 26.6899 37.9404 26.6899L39.0424 36.5977Z" fill="black"/>
</g>
<defs>
<linearGradient id="paint0_linear_513_2659" x1="25.33" y1="9.26511" x2="35.2291" y2="9.26511" gradientUnits="userSpaceOnUse">
<stop stop-color="#4B44BE"/>
<stop offset="0.33" stop-color="#4B44BE"/>
<stop offset="1" stop-color="#5BD3EF"/>
</linearGradient>
<linearGradient id="paint1_linear_513_2659" x1="-0.000342373" y1="20.3408" x2="47.9997" y2="20.3408" gradientUnits="userSpaceOnUse">
<stop stop-color="#F87B58"/>
<stop offset="0.41" stop-color="#F89453"/>
<stop offset="0.71" stop-color="#F8C548"/>
<stop offset="1" stop-color="#F89C51"/>
</linearGradient>
<linearGradient id="paint2_linear_513_2659" x1="17.9486" y1="72.9112" x2="39.0576" y2="72.9112" gradientUnits="userSpaceOnUse">
<stop stop-color="#4477CE"/>
<stop offset="0.28" stop-color="#465FC4"/>
<stop offset="1" stop-color="#55A9C0"/>
</linearGradient>
<linearGradient id="paint3_linear_513_2659" x1="2.26074" y1="29.9219" x2="47.1686" y2="29.9219" gradientUnits="userSpaceOnUse">
<stop stop-color="#906AF2"/>
<stop offset="0.12" stop-color="#E1A1ED"/>
<stop offset="0.64" stop-color="#9B71F1"/>
<stop offset="0.94" stop-color="#7658F4"/>
<stop offset="1" stop-color="#7658F4"/>
</linearGradient>
<clipPath id="clip0_513_2659">
<rect width="48" height="105" fill="white"/>
</clipPath>
</defs>
</svg>
