<svg width="90" height="81" viewBox="0 0 90 81" fill="none" xmlns="http://www.w3.org/2000/svg">
<ellipse cx="44.8948" cy="53.9704" rx="44.2732" ry="26.7484" fill="#5C1D8D"/>
<rect x="0.621582" y="24.9957" width="88.5464" height="28.9747" fill="#5C1D8D"/>
<ellipse cx="44.8948" cy="27.2221" rx="44.2732" ry="26.7484" fill="#BF00FF"/>
<circle cx="1.78735" cy="1.78735" r="1.78735" transform="matrix(1 0 0 -1 6.31055 34.8009)" fill="white" fill-opacity="0.5"/>
<circle cx="1.78735" cy="1.78735" r="1.78735" transform="matrix(1 0 0 -1 21.4961 45.3188)" fill="white" fill-opacity="0.5"/>
<circle cx="1.78735" cy="1.78735" r="1.78735" transform="matrix(1 0 0 -1 43.0586 48.8936)" fill="white" fill-opacity="0.5"/>
<circle cx="1.78735" cy="1.78735" r="1.78735" transform="matrix(1 0 0 -1 67.645 45.3188)" fill="white" fill-opacity="0.5"/>
<circle cx="1.78735" cy="1.78735" r="1.78735" transform="matrix(1 0 0 -1 81.5557 33.0135)" fill="white" fill-opacity="0.5"/>
<path fill-rule="evenodd" clip-rule="evenodd" d="M35.518 11.8264C35.5575 11.4917 35.6746 11.1709 35.86 10.8895C36.0454 10.608 36.2939 10.3738 36.5858 10.2054C36.8777 10.0369 37.2049 9.93902 37.5413 9.91939C37.8778 9.89975 38.2141 9.95895 38.5236 10.0923C40.0883 10.7612 43.5949 12.3509 48.0444 14.919C52.4954 17.4885 55.6263 19.7324 56.9862 20.7505C58.1472 21.6212 58.1501 23.348 56.9876 24.2217C55.641 25.2339 52.5484 27.4483 48.0444 30.0502C43.536 32.6522 40.0707 34.2228 38.5207 34.8828C37.1858 35.453 35.6919 34.5881 35.518 33.1487C35.3147 31.4661 34.9346 27.6457 34.9346 22.4861C34.9346 17.3293 35.3132 13.5104 35.518 11.8264Z" fill="white"/>
</svg>
